<mxfile host="app.diagrams.net" modified="2024-05-06T15:16:44.570Z" agent="Mozilla/5.0 (Windows NT 10.0; Win64; x64) AppleWebKit/537.36 (KHTML, like Gecko) Chrome/124.0.0.0 Safari/537.36" etag="hsZKhu_dEASaV1OIkrzz" version="24.3.1" type="device">
  <diagram name="Page-1" id="GMDeI79MZksBnVKa1Pza">
    <mxGraphModel dx="1050" dy="1657" grid="1" gridSize="10" guides="1" tooltips="1" connect="1" arrows="1" fold="1" page="1" pageScale="1" pageWidth="850" pageHeight="1100" math="0" shadow="0">
      <root>
        <mxCell id="0" />
        <mxCell id="1" parent="0" />
        <mxCell id="hM4CPdTcmnPTViztY7_x-1" value="" style="edgeStyle=orthogonalEdgeStyle;rounded=0;orthogonalLoop=1;jettySize=auto;html=1;" edge="1" parent="1" source="3IGZsMCNK8XpxzBf81Nb-7" target="3IGZsMCNK8XpxzBf81Nb-9">
          <mxGeometry relative="1" as="geometry" />
        </mxCell>
        <mxCell id="3IGZsMCNK8XpxzBf81Nb-7" value="" style="shape=image;verticalLabelPosition=bottom;labelBackgroundColor=default;verticalAlign=top;aspect=fixed;imageAspect=0;image=data:image/jpeg,/9j/4AAQSkZJRgABAQAAAQABAAD/2wCEAAYGBgYHBgcICAcKCwoLCg8ODAwODxYQERAREBYiFRkVFRkVIh4kHhweJB42KiYmKjY+NDI0PkxERExfWl98fKcBBgYGBgcGBwgIBwoLCgsKDw4MDA4PFhAREBEQFiIVGRUVGRUiHiQeHB4kHjYqJiYqNj40MjQ+TERETF9aX3x8p//CABEIAfMBmgMBIgACEQEDEQH/xAAwAAEAAwEBAQAAAAAAAAAAAAAAAQIDBAUGAQEBAQEBAAAAAAAAAAAAAAAAAQIDBP/aAAwDAQACEAMQAAAC9kebsEJKCAqQJiYAAJUiQAABKJAQAAFBAAUEBQQFyEEgACQAJAKCExFWisJdz4ndPl7V3Rx5noT5tzvcfQaqzEgAEkSLAQkQFAAyESACQACQBEc1nTXwePU+m5Pn6anp83HGpvXFZpFFWmiLzQTtgPX9X5O2dfZ6/IepjXuK2yTEqCAAQksATEmIiUSBSYmAJRBNMvA1n0vFxp0zelZ3lNVTAgglAlCWUQWVklWS00lfQ+g+R357+xv4vtY1IkBQAAAMREikxMAAMI+d3lww684S1EJIAQBBMIJmsgAhZABa+Vo7frvifqeXXumJwBRIAABjMTACYCYE1nzrPP8AI0p25wRuTEwCEIAgmBQAAEwExJAJmEbfU+L9Lx7WunMJEJEBRKQFyEAEwTAYfN+j4fXEQdMQLETBAAECkohaSjW81g6C87oqmLWtmaYRMSez9H8R9Hy6+wicJRIAABEhiJQApW1E+c87s4u2II3iSCYQE3ms7dGud8c90y8VuyZeS3RM1npe+dZtkvPHRFc2XZRnzc+rn7eeqVjr47S/Z9fzv0PHpYQAAABiiZQAGO1LPkMN8O/NExrKEytde7PTh6uvTHTnvvObzx0QuDoRzuiDGdYWsXotK3oREwmHD6fLvnwrV68Eh6/0vxn1fHr1zDKQACCUDGYmUKJiEWivlvP9nxu3KIs1mN8vSnTo1i/LrN62WQImJUkqt6lYtBWmlClNKLWJhIz0qcPP6HD289RrFvq/lPq+XT0ZicWUCUCYADGYlQgBExXheL7Hj9ecDpjX1PO9Tl30tW2NXJtTFiIvEsJmWIsKRpBnF4jPPbIpWc7JjMW4+2lnmTpl389vo/m/pOe/ZmJ50AFgEoGUxIAAiYPB8b6L5/rzoTudvoY7ce03wheu3FWzvv5+p21ztnUoLZAVjKLZ48lnVhyN89IprVJmZddefbG8eL0vO6co97wvZT6NE8tAoAAGQhMKlEwgrj+X+p+X3jLo5+zo9GlsOXTFWu8Mumtc7SE37OCc30tPLTfrR5UHfw8trLzNrK7xMmk5xm1pY1jTp59ZnHabOb3vD+oj0Rz0ARImABmiYTAlACsflvrPnN587p59emL1y78626+WuN9GONDTGmep1befpJ6XmdGdvHPR32+P3cu6RS9JWlMdY3jm7YoWzu9NaSzzd2K5/TfP9UfQTWZmYACYADNKAAoQODvys+Rn0uPojTt5s1h6WEcs9TePJdNli2mudxy9vGnb36s9PI4ff8LWNYvaXKuw5tb3spe983PPqxW2W9JctaekepMHOUCUCUCYIpMKlEwIoQMtKnh5d3LrXRzdVI1nDrTDLsqcFuuGue+0nNFO7We6t6Z1h5vp8815XVzzrO9rWik2kjWeZJRpNVpfOXP2PG9rWe0TAABBZQioRMKmECAiJqc/l+p5Wr165bTXNtrNzQots7Iwy6c1x9ni76vForDDpwxrl5+3IxvTUm02M16kQiWud8rnL6P5z6i4sJBACkTAVVCSUBExUECJqZeT7Pk27bc+rWtsr1pEQRWay0raZe23NnrHoV5C64Z8s10vOsdM5o6LctjornC2pEJOVsE0+n+X+muLCQBBKABUWCAQICImCvmen51ZbcfTd7Wxk2rlC6Uzzl1tjsmXJ6PPvNWGR0Z5Ql9ufVemMmNTbBZ0MrS6RQWwvjcdP0nmetEoSTBKIJgAIQQKQERMCEFeLuwrxerkvt1Mb51atc1nOMrnq283Wzsx1uvDT0arxPRpHBbehlnthcxpz76m16359IrbMrEa3H094nCQEJQCBKBAsICJggiETFRS9TzvO93wtza/Nst6XTXPz9eGsc/RPVWTozbpNpzazNlypuTht2VTjtpFl7UnOmVsrmvqeR9Fc+nMTzsxMKEImAACILAlVlZBAhArMFPD9zztTy9+a3TPZfnvjpaiy6dWOsvRbnVtXKjXS5IjpwyzXSkJmtL5XMxWmsznEbxP1nzP1fPWkxONACABExAEIIFImBAREwRFqlcdq183n6fl9uWunNZejTm3zvs05+jO1b2l5M+2K4HfBw36Ky5L0TLK2G+c0iNYlFj2/Z4+zj1m1ZiYmAAIQAFRQIiYETURIitqla2qZ+D7/h9Mck1dMXvlK9nX5fTjp6d+TfG9VE1eihSrMnntzaxXJHTigsXpvNfTdXx/v89+lMMakAAgCEBCJsAgEECJEQgrS+FcfjaY9+JaSqJqbUR0dXnWzv1LeffPTsrypdss87m2MRvkQslEk9We+OnGRvH0np/F/W8+m456AAgQC1mFzKAiYEAiYIiYI830fH3nzstcu3J2cXbneGXoc6c6YslEi1S2UFqhASYWK621zuyaY6csWr14X9nxd5frlZ4dpQiUSEFBKyWEBEwIBCBDCtfE14OnOmWufTFd8ZmvSZdHPrz49yzy6+jz6xzL1uYBBJDTWax3vbO4mWd1z0zucs9sunJaLXPs+x8brz6/WvluzGvdeb3ZuiESgpC5EEogmK8Vndj5XDvPbw1npghZOeuZW0St+vj1x07r8u/PpauhcMuqtnJTtrZyOqDG+k51RaIrXSLKV0rWOO+PTimJ1iARItpql9L0vm2dfYR813c9+uimV3Hw6nreb5lOmNM4bzCYREgQXpaTORdNK6c+zWt861vneWYslpFxRctFyZ11gzjQZV1pZz4a5dfOGswBMSQFAkHfy0rKQuZQJAFRJEJglXI3pNi/RxdmO2t6X5db2rcmUkLikXLmsKrkzi+Nlcc8enG9M67xMQNWeiAATAASCItBBBaayASSVKlEwrbGTW2NjeMUvR1+bM17NvP6+XbectM6ECIz1NM+XDfLr89lvnMFySIiwrIXnOTWKyAASKQQgAJBaCspIiBQLWEiQkE9Rnr1anHtaCMeA7cuaDfKYEAmQAgEWCZCASD/xAAC/9oADAMBAAIAAwAAACEVeVf0WoZ7BBzzwoMMs48858484fMNcNeJT6x++ltHE/P/ALi/z++u/HXDD7CfaJKLMOzAoszqBDDy+q3f9rXOLSasZ19CGKKkqcDCCACC/VrDaUrxZ5tlVpx0Q0p1j2a4CSrTvuDbc0lt9Y0Qwso8hanDze76D/3boyhd9hcm36MT1O7wTLDDDjX/APaRrRRZrMeRm/4GkYrRQwwwwy9v6msWgYM/cxxBFBRfojZwwxz61d8Dc7AJndZlsMUHVCVi/wA81OGlb7j5mZdot1JpS9d+9aRqtPDw6kT0xKwMjWFs3Ht48bw82VvLrbb6wrwew/8AIN/4N9dQj2QFmQw4k06uOsAI7lRIy4QtyMsWpRKsZxV8T2IEF4qhUa5FSlRidvaKqNNNNfsKEkdBHnLk0kvqMqW3LGQ15hMOzoE51hJbI/tAIZTaqla9/wAZaGoDjsbZYrTApci48aexQGTqfcWkMsJJSaQDHGcMxEA5OrkyY+DWh3/ToScTcRH5e0wIN4Y2AQJ1aTozzQTWZ/dbl85wuC5mTyPOmlUMl083YmTTWUtvwAn3Q0E74yN0IBOV/wA/1Ev+MjW3Ekr2iK2H4ISRTyt//TlUXJ+smZlLPYGNFtvZsSAEXN8kGm1k/g3phPe2HJ+8tPBDb3HuK03NvLJTWJdIvDnBNP8ACqDO/wCys8yN2FuAk1m+TSy+8peN/M4Gkt/jt7wxae/7J/8AADRTJdUw52HBLEYeADDd8dPGw03b7hkHjEMsGHTwADGff2Pf/HgLNWkDyEjIDgkF0nG+FUHEOkTjQkX3apTv63FHnUFEH2MH0EGFzwGN2CGPzx32EGGGF0H/xAAC/9oADAMBAAIAAwAAABDH+EtzgNOvBSBb4gU2XDHHC3SFIpaE5aqegKRmJqyrrU2nmD3FjZx8KsK5gHXerS6WayUIMuAekfjyhwvzzo+uImzmU15apuHDTHra4w4wQJKM3KFlUnHX30SRj2zmzwZy6tea27JRBemUQyhyyxAJDlOmguYZDZp2q3HEEz9HJyQDfClsy8kMFHbyviUV3SMV+RjrBddIv4HMUMFlvYkBkux7vy9G8yCQn2GVUAMVUqwYKtMx0CLANEn3xG7f3qE891/iuPRe0rdQXTKeurKmT80ZGEL5yhHiRF4PM48rG3IwTBuw6rvDTjjPXtnpwS2Ro1nkhorEFfNeIDijoW4rAKf/AETkng4Q/lXan+Mnc8YzuJ08A89XlZkOc5r+QfkZK9/9tTsbslWP+RmH4zHc7q0ucPy5lZ8KOFJ4gjim0ESuh35lopItQBF4rR/LMqEssPRpiVwEmlVKjOqpBVP3Ndo5x3wFkME+eh5nxiUWLNO0Q2PQZVOokBCFFPWvbaQJOieRL6y/xMlOTIhrW2fxaKiRJTio3kDCueQeQmmPJnhIWxB+uu3Ckg0clEX9H92cW0p4b6MjM90xiaSwkU5yXzqGCUdkz8PkrrrRpKLEIlGXqFu5J/2myMK90UNjQcLZ8ASjYxyI3YhCMcBBSDHC34zgCUI+7JvZCrGvkHY7Jm5RlmAC5CNbzMlX9/l+d85sUFaTp1pYD9cxpjK7u5LfWiQf4ihZ2bF6wnxEO3el4T+txzLKSekrZfMPh1bADcWte8F6HeGLzrXfebzrvRTyChZSCJjiiVPHLPLLjjA9Dffh/C+jh/g8j+c/ff8A3/w4w//EACwRAAIBAwQCAQQBBAMAAAAAAAABAgMRIQQQEjEgQVETMDJhFCIjM0JxgZH/2gAIAQIBAT8AbuLa9ts+S3v4evsZPWyMF2X3y/Rxl8H05MVJn0pCpMdORa3hf7Xe8Y3KencvWCOlZDTxX7FRjfpH04nBHCL9EqUZYsT03wSoSV7qw01a6+5gsUqUpPopaVLMhRSLHoxs0WLDJQTWSrQ4ptDTXrw9+SGUaTk0U6UYLrbPnfdpMrxUZNfPlge1zBTjyfWChTUYrZfbZqHyqP4RbzvkYl0aWnd3LJIXjdHJDrQTtc/kU79n1Y/Ipp/7Cd0NJor0+EnjDLZaEPwQtodmlVqafztbZzUVdk9TFP5Hqh6mQ60vklNtl2c2QqtPso1OURFekqkWTT/88rb07cyj/jjtexV1FnZE6k5DuXOTOTLmdrmmrcXZkWmrklixVg41ZXfk944kaWTlDL6LFeaUbDd2LZ+cXZmlqco2Gap2qofe9zO+bi7RpOmXNVLNhdnQx72GK5ZnBlGq4SISU4pmrj/VEff2F2aVqzySkoxuVZOUrkYNsVKb9DpyXoe6yyNJyZDSx9jpU4roaurKJONn0aOb4tGrwo/8j7fhcv4aSX9djUf42KN5EXCKWSNWnfs50/klCnJtpj00n+LufxanwQ0yjmbOUFiKJVZ5zYc6j/2OdReynNTxIjOEJ4WDVTzFf9j72vunfa22nlaSJtNL4KrUIrih8m+xQlcjRbWeh0uHTsijKSna+Ceo4zsVZc4KSKbVv2cYzwypThCN7H9viQbUrop1HzyVajc2PyQtoTsyNW9PrI6nKBCZCXt9Dr07Y7JVZNFKXbKnb+ShPDgxy4sVWS6Y6rfbHIX4tkZWkiX5tD7+xYjh5IyspEHka4s5OxzwXbfRDEUVERlxmmTtOzTHB+snFiVNdvJKXpMV7nUl4X8HvDp/Fhdiaa6GsvBe3o5Mhd5JxwNClixexy3SyiaSz+t2X86Tw0NWZF9DYyInb0Sm2ji2z6MlljLM4liCbaKnbW72TFtjb2UvysSWRDuNEUQs0h0rvojSWSpFpI4O59N2HGw0Uo5uT/Jv5L7/AAXF405JSTJRUlyRaxkhS5H0eKu2cox6PrCrNYSuOcpeikrvoqxSiSeSKuOPGncl+Q7eFixdHs970ZXVidNralNIlVhLBwha40mxr4Itp5Y679H1W45GncpQdzUu0Yrxt42yPrbTytIlFSRODQlZGRVGOTv0JyY1JstkimQpMhBRNVJOT/W3xvbbPiiLsyjNSgiUEydO3olgwclYVVDmmLLKVP2RiTxFk22/B74F4ISNLz5fosOJUpXZKLT6JFi1ylSbZGNltUtxZV08krmU7W81nexYpwcpJIpUlCCRfZoqUk0Sou/R9GRCgQgkt61T0iKvBJmqocXdD29GS37LCdvC+TRw5VFtN8SM0/ZfayZxQlbZ2ROqkmRvKZHqKK8HKBNcZNFxDztdb5EKEn0jR0ZRlyeFtUjdEpOLt0RrtdkK0ZexSTMbSqKJUr3LtlHsi9q+kcpXSJ6Wov8AUlSnHteUKM5eilpJN5RCjCHS2sMrQTV/Y00crMjVkn2fWmvZ/JkSqSb7G3cTISaKLbjfexKnCXawVNHF/iyejkmKMn0iGnnP0UtJGP5EYRSwrFsFtrYH0VZO5KSZZFi/wZH1smQu3goRajnysRoU49JCSWyYmiwy7621NN2uhp+jKGy+2b7U6Tm+inplH9sWMebWL+K8Gk1k+jBeipp4SWFZlWlODyt4U5S6RS0vuRGnGKwvtPw9eep/Bj7Eab8UL7X/xAApEQACAgEDBAICAwADAAAAAAABAgARAwQQIRIgMUEwURMiFDJhM0CB/9oACAEDAQE/AB8A+L1tXbx8dj7nUJ1D6gcH7hYQMD/0iwEOQC+ahzC/MbMb4n5WgzN9z8hufkav8i5SPcTMCeZ1KfBgo9473yVHzWIWJPaJcGyvRmPJ1NDwfj9TLkoVGYsfho7oxBiWUDf+T32DudqEykk+flUWeIg6cai5cuX3VD4mZ6Bly+2oEYxdNkYeJ/DygXUOnygf1hxOBysIinpNiI4yKCPUHwueJnqxvVxMTOeBF0L+TP4Ig0aCLgX6iqAPE6RPxiZcIIIqZ8ZxuZcw5CrCcXx3jZ/EyX1HZVJPEwaVaszGioOBBfG1SoJd7GjNZpwy3GHSaMXg3FYMisPhIHTM6gNtpMVsG9QCCAwS9jBuw6rE1uAo3VBMH/CR/vZW3rc+DNRXG2lWsYMME4g3vbqELi4HEz4hkWOhRiDNPxjbmevgMzgTEpZlExqFUCFxDmC+YuVWiHc8R81AxtYboGJlckmKwHNxXBXzNcgDAzS8o1wd9QmZgOi5pAA4NxnUCrhZurxQmRHJvkz9lB9CJqMgABg1iAcgz+ZjI8w6kuaXxGV65gxAkXxMaKDOjH9RwyngmZcbtjtjzMC0hv4sqggxA4P6zCLJJ8xk/UQ5MagWZlfG6kTCoav8mdAFH3BpbxXXJmnXpYqfMyAkxnKHg3MTOzRAxccxltgJlxdS1P4wGMV5HZW19jLYmPAVc8xEKuTMpFCzUfGXelPEx6V+r9vETEMfiZEZmEQ8CZcXTk6xOixDgQ+oMCqeBFx1FH78eo/IhYLi2o/AQaEJVmUiOK5hCsOYiAG6gjFVFkxD1kmuPUxzInUlRCy2CLn5ftCJ+T6QwnOTQWh9zHj6R9mNVTMf0A/34a4lzFVX7gFjmOlkeaEANcEwIx9mDEPYjADhYjC4psSuYVB8iBQIK2eZHJoV8aGjUXxDzAIBDfTK/wBiYwD5lhYMgJqD3ONieJkNCOP6ncdtbnyDEawNgJwI54hchoM9GPnMxOJ+QQZQTxA8LTM5PELWoH1uNq7fcPBmLIQSKga51TJnCxc4c1cqzFwgnmNhEGICZiQDRmnckxBHNS7eDxOd/UFb8bcQwkof8mLIGnqZsbMZjwMDf1FOTwKgGUSsh4hwsTyYdMsXEFa4GoTM/HmYubP+7DsrcwQ7ZRcxZCrVFcEQEEziKgPmdP8As6R5uWiiE8x2AMfMBHyFjMIpF+C+0iwY4ZWsiJmYe5jyiBoJyYAblH6hNTUZaMZyZiHVkAgAFwd/vsME1XSK+4DFephzCgCYjAjzF2LCZ8oUeY7ljtgB6wRFyqSRBBt63873K2Z+kEzI5diZRGwaph1BXiJqFrzc/kLMmp80Y+QseTsJgxdKljHashIMwZesQHtB3431TUoG2JQ/Bj4iko7ByJ+RoWJ2AJPExac2Lj0qVH/sZp3CvR9xTx31tcLKBZmpyKxAG2F+lp0qyi+bh0ykcTJp3WFWlGUTEwM0xacLOkVcy+KmVaMBrmYdQnTy1GLlRvDiBhB2AwuoHmZM6jxzHyu3k7rNM7XR8QUROgERsKnyIdOhriDSqD4i4gPUCwrHQEczUgBt7MXLkXwYms4/ZYuVWFgyxGyqPJmTUE+IWY+TL39xP7CYk44ioROROKnEFbEC5XEegJqXDP3WR7jZ3YVcvuobaPMDwYrrDRlShAJQuGplyrjU8zLrGawITfJ77+FXZTxP5OX7mDWuh/bkTFmTILGwmTKqeTMuuAJ6eZkzPkPJ+b336H+0X1DNV/aN5+L/xAAzEAACAQIDBgUEAQQDAQAAAAAAAQIDEQQQEhMgITFAQQUiMDJRFDNCYVIjUHGRFVNicP/aAAgBAQABPwL/AOX3LmpDrQ+SWKprufX0xY2k/wAh4ukvyHjafyfWwPrafyLF0n3FUi+5f+yORrXySrwXcnjYE8dLsSxlZ9x1aj/I1FzynAssuDLIhWqwtaRR8UlGymrlPHUZ9zaR+f7BcrYiNNFbGylyJV6v8x1Z/JqL+ncuXI4uqlbmYPxGMvJITuutc0u5XxsVyZVrSqPnwLl+hvlRx9WmkYfFwrU79y/VVqijEr4mTfBjZfpqE5Up3izC4nXVUXz6mrUjCNzE4t1HYv1CZh6jjVgxSv09WqqauYrFuo7dWjBTbpeZ8embMfiL+VdZDi0YX2i6XG19ECTbd31nh+GcnrmQXS1ammJiauufW4WtKbSI8ul8Qq8LIfr2LGg2TNkbI2ZoNBp3ac3B3MFiXNW6SXIxsrz9OxpNBszZmg0EYGk0mk0Gg0EoEluIoV5U2YWuqsejn7WYuX9T0VAVIVI2RszQaDSKJYsWLZWLDiVI7qPDKjv0db2Mr/ce/GDI0iNEVM0Gk0mk0mg0mk0lt6pEkt3COKSSZD2rop+1mI+7LepUiNJCghRLFixYsWLFi3oMqRGtyhU0SRh6uuK6J8jG0tFR7tKm5MhCwl0jRUjuLmjw/wC30fiW4kUYpIXTTiSWceaMCrR6PxLcgUlZetYsWGhotuMqw3PDZNromeIvcoq7I8t5It6TGNjkazVlJE42efhS8l+iZ4lDcw8c1uL0LjZKdh1kSrjqs1suziRllVjn4VVt5bdH4jFuI8oq5Shojk5WNofUJH1i+BYqDFXQqifI1blxslMlMnNsbNDfc0ipfs4F0JiZPkPLwlXl0eL+2S5vLDq8spysXeUhsuaihVd7I2oqopFxyJ1CdY1yYkxUryXEWGpfzkLCYbneX+x0aKXC46VP4HSQ4WNUl3NpImrPLwhcL9HivYTXF5YXvlMlJISqy5RZ9JUfOVh4S35GxsaEKjH/ANI2Er+9jlWguMboWK/Q8auxLF3ircyVWcuZCFy2UHDRxKZ3GzUXymuJGJOKauWMDS0U10dX2Fdf1JZUWoriyeIlfyshCdTuU6UI/sg0NjY2i+mSkuzNspzTtYbPwK8NLv8AIojjYQuQ2XLiqKI66+DaXNSFlNcUW4E1ZlGEL3lxMNVhOFl0c1dGLpOMstN0WsUGkjUbWxruOQ5DlkmyMjE8olGGodCLjyJw0SsRflGixGDZO6k0XuUIrZ3aHFX4EYlifuRYqopIp1FGorC5Lo8XS1wZJOLI3fAqUpRVylxQxkISm7IrYaUI6tVxT/RzY6fwRiaUV+xg6La1PkWMZRutSKbytlKKkbOJEsJFi3nyqLgU+RTg3Vj/AJFyXRz5Mr01O5CNpocdUWvkoq0mhwuOiQhZlT47DoQI04osRiMcNdWMSEFGCispq6ZOOzqMSLGk0mgUDSWNIlxymuBR7mEp3nq6Sp7GXd2W84ip5Klxciw4komzZsxQLDMHDXXcvjJkjFU9SKU+zLFixbKxs52vYqVV7I8xLhlIhzMF7H0jKtHTO/Yt5xFanqh+zDTutPfKxYsaTSaLmKqw9lPi+7MDDRRXy8mSJxKtHjdEZVI/sVem15lZ/wCDa4b+RtsP/IWIoL5/0fVSt5IE3Wqe6RGmo5sXuMEvI+lr+wXuIiJ0Hq1w5kcVDTaomn/g2tF8my8P5o1U/wCQ61NfI8Q/xgS20/cyFGOpIgsmNDJxLZJI0r435CfmRQjpprpa/sFzIiysn2HRg+x9PTNjTXY0w+BjZQh3FkyQxkoXyQixbdkUletEXJdLNXicpEc1m8mhRvKwkki5qQ5EpDkazUMTFIuXyvnNmG+/HpmVlaqyLyW82QdmbVfI6y+RVB1CVUlUHWZGrJ5XNQpGo1F8mSZh/uJkHeK6VmL90WQeSZcuXNQ5F8qkHI0yTIzaHVNY5Xyjky5qLly5cbJMw78yKf249KzFrgU2Jly5c1DkOQmLKoNly+aZrNRqLl9xsZgsGklOXTMxAnZiZcuXHIci5GRrRrJDRY0M0P4NL+C2TZcQtxkVeaX7KatTiumZUhdFSLjMg9xjGzWRbZGHA0I0w/Rs4iikScUORqHJE2soizYzCLVXR8dOzFU7q5FiebJDypVdHY+pFNy7nE4mqXyWEiasaWxUhwELJjY2eF07ycupkrlVaajFITzkjSKmRw0SWEg+QqEoDiaWKLNLFFjgaUMazuNjZc8MhppX6lmLVqjExMTykWIoiI4DgjSjTEshpEmhvJ53GxiV2jDRtRj1LMXC+SYmXLkSIjUbQ2ptjbG3HWNWbGXGy+WHjrqxRFWSXVVIKSKqtJ5KRqLkSObGWLFixbOTGxvc8Ow6trfVsxtH8lncTIsixFjSbM2Zs0bNGlFsmSY3uIwcWqa6yaTVivS2c9xSIyISFuseTJMk92PMwtaFSmrPrGYuopz4dt2MiNQhUFM1Fy42NlyUiUt6khVJ0ql4MwePhW8s+E+peWMr6VpQ95MjUZCpwFM1ms1jkORKRfdRBcCXuZ+0+J4fjlWWzn7uprT0QbJycnd5Q4uxKNt5SFUNZrNQ5DkN70Y5T9zEJuMlOPNGHrbajGfUY6VoJEsk7NGm5KG9cuajUX34xEMlzyR4TVs5UunZjn54oedN3iaSdMt6qQoiWTJZIo1NlWhMTuk/npmYzjWHnRlbgI0jpolRGmvSURR3GPJD4o8NxicdlN8Vy6WpXp0+bKmPf4xNTk7sY86c82hwJUR02We5YURREi2byY9xV6y5TFjMQvyIeJTXNEPEaT5qxCpCftlf1qlaEFdsr46cuEOCG23xyQ9yLITE8rDQ4jpo2aNkbM0Ciad6w/RjKUXeLsUvE6seE1cpYyhU72foynGPNlTHU1y4k8bUZKblzeb34kZCedixYsWLFi2di2cvUo4zEUu90f8AKx/692dSEPcyt4h2polUnJ3ky++s0IsIQt2xYsWysWLbk/Xc4ruTxtKPe5PxCb9qsTqSm/M/SQ8kIRYsL1bZMm/Wnjasu5KpJ82XL+mhyWdN5IQt23otk5ZtkX1LdsoStwLZQd1kvWqTUSVQlM1bifVLmhyLpilY2rNqyNZopVVL0bjqIdUqVHJl9+5fr02iFf5FITE87jnYnVHNDqPrET9ai2IWcyq389L/AP/EACcQAQEAAgEEAgIDAQADAAAAAAEAEBEhIDFBUUBhMHGBkaFQYLHR/9oACAEBAAE/If8Az7du3ncON/8AJcKXmJg3U63eKXjkPwh/Ja/C8JjxP+JbgO7OnsiabZu89hXdYvy7xReLVJNE6ObV2tgbi2i/a+43IQfnulsqwp2yvImd3be5m87t27du3by/R1Dk6TQun7jBG38tdRW2bQjfX9E1XVvp3b6NxNb5O8W73q0K8O5B45j5CyRWZia/c67Z/I317hhuGHchX6fJdJmoeJVv8G7dv8g3IQ09wDZ8ZnKZMHi307t27dvO/wAo3PkeTtBvAjo18EghcP4N5307/EXAfceb40YFq18FY2N8siTnr38Tejd2hHgtIGtEHxN03Pb7S4cv5NY1atdR4mM/xMRqPhrd4cz5y5fwayjcAvU6YL9W0qTo103CUfDaKXSz3wvXq3x2heomkYhNbWRgziwatZGeeIT7Phv+iJepcazvGpHF9F+kdOpTITBm60M9C5uBOI+Ftxyy7ltwLKl9Yh12tfwWjAkmUtpa3oLlIbl/X8L/AD3+jpCR5iBu9DAYn8HRmZyLfaOg1PaDUI+Cdo9kf2p6CPEAIIj8DOGZnLbum/2R7vqPgt37xrG6IawIIzvpZwzJOWbcWhjH+uLRvxHwWM5PMIxEY3jXSlrB6AGM4G7yWsHctf8AHw3Oz0YOEMRjWQlrGrVrDhEoY5oG3bToj+o+GU5knDd4yLWFh6dzgiL3r0znvbrZCJnveLcby42+EbYAu+ZVohA724cL3Uh5XlW9wg9q0bduGcEL77t0sC3pdwbtHe7OIvduhtx0sfDxgbfrEbSRxaEo825S+4xFpvvtB5hfOYAd4VdM8WV3jI67tPmiHIhzb++A8Fm8rwILwu5P2453ww3dX7sc5uZ7v2mFwPjnt2fcyOt7/if2UvA3fd2xXkjPMLl6Nxi+27ui7hgGOA79yEbV1ud5tM0ctqbuRs692+/XwztWn9mFjouA4prl6hzjaNvnUe2PEWM3yavE2eXdzDudesWl2mxmG4bSAHA0dvPMJefMHlq2S5jtiSnQiEYcXSePh7EmDrjdq0jmxHWQGXNfmH3h4b2Gbjc9/uwtdi234DOVXWCFQ2i5bd6awkHDGKAdp1XKy2n1+LX4G4EczkS2if7lbTsTd2zmvuQ9l4k1O3DoVJAEuRakfWbxhyXHOIpd0tXu2DR2jJP9EGIFw0f4PhNoNMo4bmHhi9Et3xiDcK8ye42pivJgTaAhxJ7RgQ4JIwe5xeN3B1VEMW1sFsV3C5Edvich+ruHuP8ASMNPtchjyTLPoi6Ip4biPiay8mdyP7shh0R6F3jU+4B3V3bWMdlxdz+IguMd0wbsXZ2uadlqYxzD9B7hWG0Pc3gwthaafWrl39U0HP8Ai/Z/huxbNewf225NI+C7Vhu3Fr+Js/8AUv8AWAi9j5EzRz1PCX7JsTO1/V75/Eg/98A5Q9EQR5gAiGI264MavSI9K0dDMuLYX3ftHxHpsLzhgmjwxQl2NodjEi7n6jBDKbQg5xGGkyyyz4tV+46D6+I24k2n3KGHJlODXQwEAjR3iwFItLTfQFizFluDGPiOH7Ni3KG3LblwcrJ954FNjC9N994l3iGegDgWWaNh+vjONN5D0C1wecN2pu5bLu7u3TjOIw4d8fgaBHQfEcN362noFrkO6M8SMa/dtcw2uI1hCDbt4OdyZvj82/whxrA7zqpOKETtNZJe7YdsDnm07Me894EyymKn10R8Zuvc2EuGHm3LKdpt8RoG72zLlhsIbIwfAud4nDKV+lXj9PjOHG/Fy4RwM/NpO9537GrbzhD4ts4nb3uWLsl8vm0Mc1mOIvwP52bUSIBmiTCw1JiKcXZGmZmdXBelM+hbe9qhg1DORPdbf3jL8Rw2ros3gbY+Npa8gvRvrgPGMmQLCbc4atA+4jHqPhvQ4d3PDnSs7sFbEoxftP3t5mW28KU4LNygnmIzwR8NyzJIRte+4cBmqMCLKlWzCi6noEW3b4bQpHyGci7W4xTjuZhyma312nxJeJuujG8nej221vUfHZnCteZk9PbBbtWPjwOoZZ1ejsfTF/MHb5DMzdkdOzobtDiXVwZ3N3Nl6eVbZOJ4jT/7FrXyTcj8ssmNywPN7WHWa5btmL0Dbapt/Pc7NYW0uj2+7t8Zm+h5q3LMNik6W5D8hdA3jOLuvuU+mki89rn4zMwnluybep0S8pcnUHgxq9ILc0J8XfxztneeT4rhW/0DFm1bM9Uoxv8AHsx68OG8OUD3phN7DfRvqPwb6FL+jFtW2p4uUhneJjtd8MbxvG8gzxQYcRJgNhfccm2ey3bt/BI3LdkKPccxEScxawmmAlqtNptdKUwcGGBjXOx0+y7iYiN35k3QPZYbt2+veFtXcjBty3NwcXBaLh5gbWaMzxPqwfpGCQOhJhk5g6Nw27a2rQ6X3a0/WevduA2RcCVXbHU1tG3byeSbUQS1k94eg3GYktZNSXblzqOh7782kP0m+70gbEu7/InSXd9MsXmZcT3yEYHPOrU5DNTkakkw84fxbx3sxbrZbrQLZFbduW3jfR34sucBEMBjVq1atWrUlq1MTo255/H2bQtztZ2w3vpceM91sak8k3hYwGGoMaw1JatWrVqS1XDPMobt/a0Ovxs/icuLXO3vbm3Zl+I2NykShiMaktSWrVq1MBbHvbZTKuU/j827fSThQufOFr9kY8Ym5xOO7lD+mGIehwgj+bfub88THcWrWTSNsGp/A9ZalC3PQRLcxIbLtn9red8q25hzb5vflGj8GrURG/xODo75O7zh6TB3wY9qTmy4w2330MdZgw9H/8QAJRABAQEAAgIDAQEAAgMBAAAAAQARECExQSBRYTBxgZFAocGx/9oACAEBAAE/EO3kP7nOQWcZ83/wc4yOTnPkcnyz4HOnJP8AA/g/IOBt4M+J8j4MzBYS2TDtpeFtv89j+GWcZNlnGcnz2Ak5Eam61I3Wva7cGz+iE0ac6eS6jobHhDi7OxBLS3/wT5Z8c59Ti8GEDXX/ALLNGxf0em7Q1uBgmBb/AIZfaxLdp53m6e37gni39bPAP+YQujr7ult6rFBC/wDGJwJDKxjCmjD/ACzk475LrneucI+BxQHchhMPw/wRuO2V0U8Tu1+7WJ1nUK0zx6hRox1+OQRw9r3MT8QwsyJZhH+OfwOT5CFWdgixdx6mv5k9eynzbrbLxs8NmHqFfu22268aUJgfJ+S8W+OvWXeNmHP6HvwS6/nlj/TCF2Rq2usVqIX7f2V3u2LbzJ8PFpKeom8bDbbCOBrU0+Z6Zi5jfokGLttvDxvJ8D4+bx8F6hd6ep5RvJzKY4yRhSW0n8WuG+ePJx1bPwHhXyS695GBwO28bbHxOCyOM+Kws7WFhA9mdaxZxrYsTw4tl/Jm8DbdWTHfJa2WWsMMVReyBK2Gz5Mk4D47baWztXwTdpusebCfgoTwXOC/DVs6wvGdzwcI20Pr0cLwVFlBQhHBn895zjog79YJ3imcngltJj55eE5fLKcb3YcG87bOrGywPvvcxgE6DgCznLP45ZHCzEYdNraordtyU7Yy5eF34ZY2XpBw19XhZwxwgV9NmfzwPAFrLcJFv8si2PjltilkdWts8C35cs+rG31CiNXToaSCP2yC/cN6U+8hWTlkxCljmMFa0tdcH8j5sZ9N7hXfh2R3M2l4s7hsfRCchTo4jrWCOi/KAI8yMPE/RegSPqP6iF1YrPaeCxuxrroIHXSh3/wgP9UyLxpbLPDomY9w1Op06m3s4AZnvUE3CROXxfhZ8R1niohiDbXUcnbrhz/Eg7D2y1/qZ8GK/AyJvpjzM55CHUL4tPn+XUaRQQKSHiT9cr+Ih+eAzz7PBpITuZeHnznoY05bL9mP4DwXn5Aen3vPPcHJZstZcR/zFQ1InrCevgTMA9WfqfxZ+pBIfHmbYYwoTp2xsjptjXXYR05hL+O8Hy/QwsQXNQ7Y4PF6nEB/RC9RCEFkhIWWWXR4JHqEYTzMO2SpPUcNMoYdazws+G/0eR0/pkmZG8vwBHqHI22ZsR8BvCPF1kngdjfCZzkNL7gkdQ8Dg5beT4Nts8j2PcxE1iPceTciHDMiORc8B+EAcFIRKKSUOR4mjHqKjwjedl4eB4Pn4XnJaz1x6GwH8+FZE05JAPg0kSkCHYEP3EqbMeY0ROZb3UdNqC3Q+0Phv8jhg42V+9snga4Sg8+4ZDKYwMuhiuvhJJpRDLnZO3FzkwNElopBEHZugsxvJNdBuDb28bb8z5+N2kdXXHAH5Ft56zd4aWsEZ01D9ZRHQP0lt3qhIUjwWD9z24SgIzmxgs0ddSXBjrAg9XrhAd/4IagnCHwIRH0vVgv3gum3tttt434dfLeFf7FQAvpZQqToYHQt/JkrZWWLD2YvjuPd3fy3YGnhemNJ0WBh0uzIGA9z7YYQJggtwWEVrUkYX+CFr3+w7PiP9vor/tu3sXdiSPISd3hmm+OxHQrZoM1422223jbfjscs74emy8SyNBo3jt5SMiuu14yZBW+86tFCw/8AyQLtJgHs4Hk3+YE8MdwI9REgPvyZYaiWrWCdBl4eEQwwPFeNLbWTqkujWz6eLQBlajabokzPcGSiqdHc5+Osu0PWPjttttscDZxvDEVkRmETu3Yl6JrxeDdhuu1kBP2Jf4Mg452vOxrWWjm5Ozwg9h12AcHfDPbVaEPEPX9JO6F0c4e4qY2erJZpT5vElfUoZsTei9d7lfK8Vt/hG4/IYbkswDuEZwONPg287bbEcLyw/dkS9aTpkDc6IdvdQcgC7C7lnuDyM7oncmwhj3JAWzxdA1/GH7wpeng62VPukyXQPVlGyqzi3jwvwx82Zvq3hq+fonPi2wR9WRI/miyHRg6zNEEk+wDxv8BRu/M9M6Da8cRkK8rhBcblAU8l2hG146f7KwF8z4Qgf+0KrPL3HQDhFQTYTkL9Fn2YBiM3CTXe2wxDZnQzC+f3CzBSB0fS17yX6ikgzsWZF3+pGfTGf1qGH9E+e/weFlNIdBOQehyYhd7Jip4RsB+G7MGyt+pWMYdROsDuAjo+CV6F/wBnyer0FmsiTu5wqAePMnQyWJi0WgbscNJKfViR8fYXOjzdH+W6Ip4ga9A9fDW3nbfmssyxyvcDL0ZdxzzqLDb6bcxo6ITo8TGshzjIelZ+YJgeLNPQaw9o8UmN7TIf1zxfD42OmwXhPvBTriL+EC/0XSzD6J2E5HzkkRZ+TM0hHscjg53hl+JwvCzIEZtzV2DseLqJkT7YKdK+GBB9R/UD6j8QJ/JPcpZB9F4PwvLhSYNODXYk6hfoGKDsEci5uOs0yytx/XBnQ/G3/wAutDvu7oP6gVryumwESXWeqYCZj7f6bzsttsvAAKRV775AsvZv2R9vJu2/9FpD/cr0q2T+QLHqafWifbL42Ot2/V1Gj7K9eYQDAIdQO83iS8LIr0Szv/qi9m3+F1eCTOepOwTAH5SWU9gW3lt535bbLLLLKfT8ZKX9u5yIERa25/y8A/7LRRPCobAEncloyC2LCzjeUbBoHcphja8X2QCAh4u7L+NZvrBxts8MPG287xss8LOYObfhs6jmVb1KwivF+9OsSgASmbF8F6LaDbO2Y+ZwmmlhYe43A+/jm9yZu3/wfBbZeNjneGZJmeTxzrtHhHMv98LDOWJfSNoMmAHbSbbCKz1ZpvQVUFsY7+eHP3EzwemfctH1LsXd4PC/HbfhsssszLIyGT1sI8oTHFhxO11x27fk+VA+mOTJ6dmCGyvuFPcCYvqLAn+zjyv3u/uP1f7mdNswBfd90Z/Z4Zlnkwn2tLZiwIRjiv3dV+t25totCZHnrbLcjrinDLdTjOOA88xL5llktcOtkoB7XLPlszGdAYHq223hbfl1wZZmZ8S8XX+Ld/GMHbH3ayYF+lq+YjNbzifeSMi67I6BsZ9qz7Igw6jCGxtCIbDk9bZ7Ki+z4XO287bbxs8szM8BizdRK4K5L02ZDOyeWQ23Tr0x+As+A69sF3m8Q7Q7etvRMvGZst0EH1e8khYKnUOAvGyjb7rQwPoxwvOzbb/Bl4Z4HSZzNmKuq1JdOHoTZdRB3L1LkarYT+TkKeWJql59ZL8oa9siGMGz64umUvA4xHi2YnAovcOuxbPxd/Ft4Ulnhl4AjZ8JeB7bxdwpPbY4iWBk82pL2I3akuwYPuDBjBRZm8MJ7iPRAzCPGJWMNldHGfd1KZL1u5sci2Jt435M8MsyzvMsF9tihF1jA5BSYxK7RyIAYohhEWvcT4cQHhfgXfdRPGWsDwYGc85rbB4RsGGaOG28ZNtvxGbZerZ5MsxjHjHkiufTONueeHawwGFlHgPHJDW74W9XFe+rw6z8Jturix4d9u1vwHssJXQ/+j4N4y7+W/Blnk/AvUwOSYfhWU5dRG59ndoHDZG1PNJoy3SfV1hlhxfpxs0N9EPae84jy87PxN464ZvM8M/Aa9WPudhmQ4cHmzHcgngAZGz0mXWlfHrHUCcyAbvZNmrasCR6Ai4OM6Ecb8N+OxPLw2zwI8WBHToxEefYsoxwC+7wGYlnjqcvG8plgLH3brxLLxv8QWIvmH2uxxhttlu5+Gy2/JmbfgeMrIlcA1btR6dJe4bYqhOZ34lDs7YnUBN2D9w2/uC72IHu1XG3lngbZBbjP4eGVsL/AKinjHOz/E+DJJwzweX+2NvNYvd3kojEKwTpA/ZdBsfdH92vu/ecPM/tMvJt9z4FnzG7p4Rl0/RIgbpp9ZFJb8XjeSy64Zlt3hmXHovUdWw5F/zZ6xKPXU5vr8jqLYYZJGLa5q3Y6b/U9PNr7mbS1eFtkWE/WkAmWP1QBnIDIlvQ2A/TDbxvD8tnhlnhmXh1GQrunwC+eXIlPSQ/ozpiY8HGsIhE/uT28Gu2rG8bu3pLoNkFhAn6MT8GfwUUdLbDbb8d+OzxszwW6mfd6gqMJOfox98p1FniN7HczjwRZtm7myzjudEPXUPbLcuq7kdXYWPRh/xZd9CLbbeG2228m2GWW2fHBZniHA9cZu03ZDxLA8Lr8A4/Ry3gti23ZXgkMQ8R2TCWrxZN0YmPd0ctnvEMaMf7BfHDtL1bxtscNvDwtssvU5Fv0WKX+rLOrXnB+4M0RHIDO/EUbJZebCX67lGJNNb+odr6hM6jsYE4BjsGWNjHiTlg+Exscz/SzZ+4FmSPI+8m9DalieTZeNyUmLYbLuk9D3C1fsnT0vtlh1KCZvuFl6TvzNgh1hJEPfUodLU2OPDxPaAmb0QfXAJw7I2hxPjwMJMDhnDx5c0Id+bqFmT751vW/JoifY7dWy8LwYyCn22h9oeotDP0S5wvviala9MDeHngPyZ9S4JhtwNjU98SZGT+OXhD+pSeBjxxkzuB+BDADhfBwNAcHhJwD7JPfrysshInrY9/E3fV5UvE6XfuzeA7vPB42dxdbIQ2MujoijMZIkWSd5nezwhN6+HN14yA8MxlyZIfD1a3+LWEU+etjjI9EePQJUz/AFjGTtuzqJtlMy8dx0trdIeyFliPjqTLfHiCSibveVxEeA3vYcGAZHQiyasgCW87pwclkwi/la7/AFm7EEMnTotjkdcLCeAp36gTyEMemFP+pjEzgEcAJryDCNePqhcB0mJW8kt2eHu0l49XXJJkT4421nDy7xvO2dRN1DLes46B5Y0k2anYE5XwnvzMiP24j8IILD3xGTytIXeGOCHIoBtTXbODeZ5u+MU+TPiZM4At2F2228p68G+e5WqnvhXb1FnkWUn26fkfoDIHzsp2U85IBcPTFI4MWbd4BeZY2asQy4D1JaPcHuRwThoEE+5EmL0cvG6yEkGTOBh5Gt4qxnU6vPnWOIyg8WYg5EURJc833AJB3wgkhnG2ce6xtPGX2tZmmaerX3+2F2jHjuyySRIzbRJPDKDbDLwcPh48OPC98+aIQbWN5fA4PmTg4Tsllzd9iTkzZDo3ja8y72o4fF4Xhxhwk+DjwgLw48ojj//Z;labelBorderColor=none;" parent="1" vertex="1">
          <mxGeometry x="70" y="70" width="98.6" height="120" as="geometry" />
        </mxCell>
        <mxCell id="3IGZsMCNK8XpxzBf81Nb-8" value="Webcam Face Capture" style="text;html=1;align=center;verticalAlign=middle;resizable=0;points=[];autosize=1;strokeColor=none;fillColor=none;" parent="1" vertex="1">
          <mxGeometry x="44.30000000000001" y="200" width="150" height="30" as="geometry" />
        </mxCell>
        <mxCell id="hM4CPdTcmnPTViztY7_x-4" value="" style="edgeStyle=orthogonalEdgeStyle;rounded=0;orthogonalLoop=1;jettySize=auto;html=1;entryX=0;entryY=0.5;entryDx=0;entryDy=0;" edge="1" parent="1" source="3IGZsMCNK8XpxzBf81Nb-9" target="3IGZsMCNK8XpxzBf81Nb-19">
          <mxGeometry relative="1" as="geometry">
            <mxPoint x="530" y="130" as="targetPoint" />
          </mxGeometry>
        </mxCell>
        <mxCell id="3IGZsMCNK8XpxzBf81Nb-9" value="Preprocessing" style="whiteSpace=wrap;html=1;fillColor=#dae8fc;strokeColor=#6c8ebf;" parent="1" vertex="1">
          <mxGeometry x="330" y="100" width="120" height="60" as="geometry" />
        </mxCell>
        <mxCell id="3IGZsMCNK8XpxzBf81Nb-11" value="Converting to RGB" style="rounded=1;whiteSpace=wrap;html=1;fillColor=#d5e8d4;strokeColor=#82b366;" parent="1" vertex="1">
          <mxGeometry x="240" y="-30" width="120" height="40" as="geometry" />
        </mxCell>
        <mxCell id="3IGZsMCNK8XpxzBf81Nb-12" value="Resizing" style="rounded=1;whiteSpace=wrap;html=1;fillColor=#d5e8d4;strokeColor=#82b366;" parent="1" vertex="1">
          <mxGeometry x="420" y="-30" width="120" height="40" as="geometry" />
        </mxCell>
        <mxCell id="hM4CPdTcmnPTViztY7_x-2" value="" style="edgeStyle=orthogonalEdgeStyle;rounded=0;orthogonalLoop=1;jettySize=auto;html=1;" edge="1" parent="1" source="3IGZsMCNK8XpxzBf81Nb-13" target="3IGZsMCNK8XpxzBf81Nb-9">
          <mxGeometry relative="1" as="geometry" />
        </mxCell>
        <mxCell id="3IGZsMCNK8XpxzBf81Nb-13" value="" style="strokeWidth=1;html=1;shape=mxgraph.flowchart.annotation_1;align=left;pointerEvents=1;direction=north;" parent="1" vertex="1">
          <mxGeometry x="300" y="10" width="180" height="40" as="geometry" />
        </mxCell>
        <mxCell id="hM4CPdTcmnPTViztY7_x-6" value="" style="edgeStyle=orthogonalEdgeStyle;rounded=0;orthogonalLoop=1;jettySize=auto;html=1;entryX=1;entryY=0.5;entryDx=0;entryDy=0;" edge="1" parent="1" source="3IGZsMCNK8XpxzBf81Nb-19" target="3IGZsMCNK8XpxzBf81Nb-21">
          <mxGeometry relative="1" as="geometry">
            <mxPoint x="660" y="240" as="targetPoint" />
            <Array as="points">
              <mxPoint x="670" y="330" />
            </Array>
          </mxGeometry>
        </mxCell>
        <mxCell id="3IGZsMCNK8XpxzBf81Nb-19" value="Ensemble Model" style="rounded=0;whiteSpace=wrap;html=1;fillColor=#ffe6cc;strokeColor=#d79b00;" parent="1" vertex="1">
          <mxGeometry x="600" y="100" width="120" height="60" as="geometry" />
        </mxCell>
        <mxCell id="hM4CPdTcmnPTViztY7_x-7" value="" style="edgeStyle=orthogonalEdgeStyle;rounded=0;orthogonalLoop=1;jettySize=auto;html=1;" edge="1" parent="1" source="3IGZsMCNK8XpxzBf81Nb-21" target="3IGZsMCNK8XpxzBf81Nb-25">
          <mxGeometry relative="1" as="geometry" />
        </mxCell>
        <mxCell id="3IGZsMCNK8XpxzBf81Nb-21" value="Maximum Voting Technique" style="whiteSpace=wrap;html=1;rounded=0;fillColor=#f8cecc;strokeColor=#b85450;" parent="1" vertex="1">
          <mxGeometry x="460" y="300" width="120" height="60" as="geometry" />
        </mxCell>
        <mxCell id="3IGZsMCNK8XpxzBf81Nb-25" value="" style="shape=image;verticalLabelPosition=bottom;labelBackgroundColor=default;verticalAlign=top;aspect=fixed;imageAspect=0;image=data:image/jpeg,/9j/4AAQSkZJRgABAQAAAQABAAD/2wCEAAYGBgYHBgcICAcKCwoLCg8ODAwODxYQERAREBYiFRkVFRkVIh4kHhweJB42KiYmKjY+NDI0PkxERExfWl98fKcBBgYGBgcGBwgIBwoLCgsKDw4MDA4PFhAREBEQFiIVGRUVGRUiHiQeHB4kHjYqJiYqNj40MjQ+TERETF9aX3x8p//CABEIAXkCAgMBIgACEQEDEQH/xAAwAAACAwEBAAAAAAAAAAAAAAAAAQIDBAUGAQEBAQEBAAAAAAAAAAAAAAAAAQIDBP/aAAwDAQACEAMQAAAC7wFgBAnVZl81oyhFxlSGEWhAACAAQAAAAAAAAADQAA2mdTvcztFjRTBWMCACgAAAAAARCYKINlJcAAAwJQAXP6HCTkRIykQBpDiAJoAYhhFsETCBayk1SMi2VlC0IoVqKxgOLN3qPGdhPR8jq8nrOjx66O+PUZeZbidajkSru1cOB358Bnfn5/uZlsZGHj/X8Hsdb52zYtFCn0ccXt8Dv4AGIAc+5XZRjlVzev5Pnw1nNTfSOajpnLDpnMkdF47y5lpW5hBtCca4udTW90zJqKiShEnGFNly58K6ZzA6dvHD1VPN9L0ycrtnp6cbJ6RavAyegr0w8713GMna08OMvp8mvMAMOJ2maedh6VavMxehUnK6wZAEAHPu8+jPz4vyPrvJ61llEvQQxDZPoy16VWWS0gWEVRujLUrQojoRQXKKZTUsYzhLBSiRjOKZM3Qx2VgImI3ei8r6bl5um4y7egAAChMEMVDQAAmCGkAAAVDAaIefRn58bOZ0+ZrXmky9EDDoZuvVkk+iQpDBQJxlEyEpBWpKWKkiuM4xWpRlUWiNN0UwK2q5AA9L5r03Hzdhxl39IAAAAAJgCAAAABAAAAhgwEM+jPz5WcvqcfWvPsL0GitfUwdDSUoypgUCYKcc1AKARFSCCsjFUbFFMLYy1xsgQTilePoZ7M4mh6bzPpOXm7Mk+3pAAAAENAAAAAAAIAAEAMGAhn0Z+fKzi9rBrXl2F6RlDTXR0RlpKVc6m07FKJLOMlLABQHCaQVuiLYVZ40wxUJ0KcoaJZ3GkrtMMNWWj0/mPR8vL3BPt6QAAATQAAAAAAAmgAEAABIBDPoo58p1XVa15CE4XpDr8ruVZXLHtJKNjrqpzddvOcdm7ibDonPvXQ6Rba66JJ1ZIxOErDKtEkyT0pa2QLbcMjXz9NAvSec9Ny8vXafb0gACYCAAACgCAQAAJoAAAJAIUX5+fK1Eta8dTrx3o+3ya66ebP0ayXb5JiWqlcsba81uqdhm2hSZbB0yUtl6gTjSyx1hJQRa65FmXVWVTsoIeq4XouPl3Ad/SAAAAAAACAAAABDQAAABIRI8+ijHGyUZ63xfP+x8zrpXVDfLVv5mwvoqz2a6NeXWaEGNWFip64TOVpzdma5ufvcNNdNpZQ5TM8dEYruSWu6VoqtNBPJtzQdzjdPj5u8I9HoYgAAaBoABDEDEAAAAIAAJDEM+jPz5Wzrs1qPE7Xltdc/WxbTndXJeihsjrOei+is05zxqE7J1DNswku9Gy2nldfJnXEuzbJmKsZUrmUO9lc5imXbmSVGiqI9vid7j5uiI9HoYgAABDEDEDEDEDQAIAAACwQhRfRz5WThLWjm9GjXThbOf0Vly+vgs6KzdEzQugUlsooNGclyp7q69dkd3Pm1Uc98rF2+bM3vHaaGpwpKFap85JDQ1LGuyso9D570fLy7gXf0NAAgYgaAAAEwAAAABAAAWAIUX5+fGyUJa2UXQ10830uf0FtsrlqUV7ZVgW+JihrqzcTtozbO1n19JZGxamfPdnxurPfDFxLdz5L7M0y9VskkiSQFU6kn6Di9rl5NILv6WgAEMQMQNAAAAACGACAAC1AhRfRz5SlGWtoFrfA11qtMqpaWusqVLrlhGVWbG/PqOtDDVqdWGCZbRRRjV9eSnLqZs9iEq0aZZrFtUESikkqZ0p0+ryetz8ukDt6QQAAmAAACGgAAAAABAABaAhnvo58ZSjLWxC105eXfyq6BB6WxriTqjXmyrrhLfoz7NSGPfRqZ7KKcW6NMMrYwIvnRMnFRJypkWutrMgJOidZ1utVZz8ukDt6QAAAEDQAAAAAhiBiABAAXIEKLqefGTT1sQtdMnC9PwqmUW1ODgRpnXLCLry1X4Ne5Ovaacyrp05uCW55vPeuuKXNSUxlWTnXaOQyIRC/L2rOzRdRy82oR29LEAAAgYAAhoAAAQMAEACC0BCi6nnyk09bELWzLpR5nRTIuIvSNd0JctV9eVWta9TK2UPTC3PKyeWe+i0ow6rM3HLXSldsJxJpCg4B6rzvqrHRfRy82kDt6QTAEAwE0AAAhoAEDABCGILQEKbqefKQGtiDW0mjhZe1wDXPNYt0FErkry3dku6TTVGWrnr2V51RKbKY3Z81VwWIVzizAFEokB1tHc7NGjUKLqOPm1CO3pAAAAAAABAAIABAwAEAAWpiKq2nnymBrSQa6IELzfpMJw7M1kugqdT05dNl8oy0KL0uKvVDNzLQozu0iEpCRjKoUSMCSHtw+ls6DRToup4+bSJ9vSAAAAAACAEAAgAQwAQDEFyaQpup58pNS1qALXQQBFo87j6XLiyVbW3Rjts36Ofr2vnGVShOEsYyjm1VTriMZVyQplUJJQ0FXet8Z6FOqBRTdVx82gDt6UAAIYAAhoAQhoAEwABAABcCR0208+U5VtHEjrbIolXLnHHq0FZnohi1uwDTmlXQu52itRQquhXDNnU64KZ1lULkUO4KHdJKY6YHod3lvTallUocuGlC7+toEAFAAAAECYIEAAAhggAL0JBMSosMcqo3QKyalhy+v5vebqqsx2YYdeNVkcku0wEbzCo6L5odI5wdBc9G8wFbznh0DAzfPDKNMccK6Ovi2anrZwttYLfVoAaAAAAAQ0AJoAQ0AAAIL0FyIJQFRCUYjXHztbsEZ9uTz6Klp6HPs8/Xo1uzbFR1K45xoozUgAENDAATchTbhDiQhZCnOuaeh6fmvR6khErEAAAgYAAAgAAQAAAgAAuQrlgpQHWfkZaNRwa3mTR0xOq6qWqMo+Xvft5uw0pnSVwtjlmq1wlyK6MVkgTbgkADQk0KE41GcZJKyEa7vT8V6M6Y4jEDEwEDEwEAAAIABNAxB//8QAAv/aAAwDAQACAAMAAAAhAW1tSrDBFt99hBFNtxlS6539xBBBtT3t988kCSuZRxhlFB5VRZJJHu4ygK8hSrjVqB89tEwA1ndBpvUVfPhVxw3jUZTsJAxm3DB8GJh7Xfyb3B5B22wlQBnprDJRwkMQ1tAwsWAnLTMYHnXxqI5qcKJDrKOeiLHvGG+CyBWR/F4qM510qNB76csQZ1i++2f/AM4xqjswVnTweyIbmmM5vwtdc6wLVtql/wD+sJar/wCB6gjHAO09vgEbietwY481qCKM74CKyW6yHmIvGm5h+sOVM6Kg8444L08yxiG+qGejDHzRkCOEZ3RK0PT5nk4czWMuygY2uG7zezxWZImjh58NwHUfJRBE63HMCym+OCGSszzNynFq7TTrndQa1MTs6vJ0GYMMZzbzDjiCxHrO23HU+C0EVMSiLfdOjsJFFNfCw2iazdyi+tJ6b2kaKLTfSaixfcoNgwwGe6zz9zDfzewRfboEpAlXLjTCHfN+6AMc7DHPPl9TbTO4x34Wt4I2OrHrjrRvOM5PjHbzNRJBje6f6L1Q2p1gPJA1rn/K+yJHzX6lRNxN95C2aqpOG+lg1JYLVbWa4OO++/8AxY+TcScW7g2riipO/wA44tcECa5F7ppLIMLLs+0NkNNbq5p58bsawK44+CpCfrILqbKJ112v1kCc6YI9Ij2e86UwAxyy2fUpZ/qKqdPNPUX0b002aYFHE1c9euE0WfZh7ZqOPMd8cd9E1l4RuP8Apj5R640YEsi6APFCCz/777DjzVBNCAPhk8eyRnQsMXH+nQjm+HPLf7P3G5tN/8QAAv/aAAwDAQACAAMAAAAQNqLuPcY/zTfzf/7bDvXPPzbBp9xBTj7X/EAfLFHP2qyG33bb/qqOV38SLZBtNep1G+qCB2z/AOrGrrL1ir8hzClw2BNoXV/sNHdvvkQE4bcFU7gBM7Trq0f4dPv5XaFMPNfaMLgMzHclUxVG+9h45GsG7ctso3wBksw86/QzehXLYyxBuNIByeJrrT2dAgzWLDjBX7wtrEgnZG3d5REDfuNFCq4CSilwHKli11/s3EN/sTXBspW6i1fF5aaXIUMeb5BcTacxzcTT/prt4kHSg2yfHtYQRWns6Tkd6x5W2gE2WqMGofNqwepB2Xz3Yg73nPb153eYAs/p2CnNit252RLBGH3fVI/wmqcFQcWWSU2MD7OBv4Nlt95nu0cPeqyT6NG4VVqKONAOca1bc+7hObMrYacjGvVQsct1vuvmPS9V3fmYKB+JaxLTCGttibbF3kWczv5y1QVTPGvDW2ZS9gj5OICnb07aQPUGuBc3/wCTCAAx7IktkSVAExOLLFSSZp6mY370+bxTRwDq4o/tDwA1pWj0uOj+o+iYap3M3oRBAVZpLLY6PFCdqgp7Trhj02AyZeNr8XPHSA7iZ5Yf/GXEi80wJEpGeS48Xv8ALkOttP6xpsgiVTBWwvivVfgpp/wadUNXBmFj4091xCW6VjuPeW9dl+VzNMPpn/0si30lEOPzx5AxEAGm/Xgp9v0LTExL152h5F/f9gkRkeIHbwAUq+BKwqqRats22dM4AdT3QeIrD6Syza48AK+QGk4DEjQeIpAaR2mzMF2CxOKKK+IIlmox/8QANBEAAQMCAggEBQUBAQEAAAAAAQACAwQRBSEQEhUgMTRUcjBRc5ETFDNBYSIjJERTkjJS/9oACAECAQE/ANJKOg28UBBpdwBJWo85apWq7yWq7yWq7yWq7yWq7yWo7yRjeACWnNfBl1dbUdbzsmxSOvZjjZajvJap8tIIsiVxVwr79wrjda6ywqxrIx+VFBC2WYiZrjquyso6WnAj+K9wc/MWXylOwSmV7rNfqiyFDCHOc55+GGa4I4oUcDzGWPOo+4F+Nwpqb4UTXOyc4nL8BDIjJVThLHSHVDbi2S+M750QW/bA1dVSyOp4Ymx5axJJVeGifIWuAdNe90dJK5psQ3JR0FRJCx/zcl3AFbMqOskWzZ+skWzZ+skWzJ+rkWyqjrJFsip6yRbIqOtlWyKjrZVseo66VbIn66ZHCKgf3pVsqo66VbLqOulQwyo62VbMn6yRbNn6x62ZP1kiwtktFWxPM7n/AIco6gske+wOsCPdRVrWtYHxB5Z/5KbVwmCV0kYcXSXtdQVjHGd8jRb4YAYmTGeSNrLRsYbquqPjzucDkMhofOXxxM/+EK5oGt8IfEtbXUVW0MDZIw+xuFNMZpC9yuPPRifJTdqpeVh7BuRs/C1AAiEQs9BCO4DprnObU0djxkQJ81crWPmtZy1nea1neauVcq5VyrlX/OjEuSm7VS8tD2jTG0E5oaCNBR0EXR0jQFiPM0XqL7eLiXJTdqpeVh7RoCj4IK6dwROg6CUb7oWID+RReohu3V1fSNOJclN2qk5aHsGgcU3IIE6DayOghEWRARWW4FiHMUPqeNiXJTdqpeWh7Bojzcgv06qdJqnJGc2sQmyIuV04rWK1SiLaToxHmKL1PFusS5KbtVIP40XYNDQGtujLlktcniUTkic0CEXXCfJcDJBxQFlc+avfdxDmaL1PGxLkpu1Uh/jw9oTr/ZDQ25NlJAQ24QaSUYiEGhWN0VYWQDQU7V+wROgaMS5mh9ReXiWWJclN2qk5aHsCLtUjJWAenAAqKwGYUsxIsE02N04glMGZK1AGp7VnuXRLdQaMQ5uh9TxbLEuSm7VSctD2hEX4oZlFtwCgR5ohFqAb5phBeAERlZSAgoHVugVmm58US0cAiboLEeZofV0HxMS5KbtVJy0PYNAH6k1GJpTofynN/KIzVPGBmjZShFEaL7mIj9+h9Xfvv4nyU3aqTloe0aGcU1fZF6e5Ri7l8QNyTpMslI9E3Oi+7iP1qH1F9lbdG5fTifJTdqpOWh7Rob52TSEXZJ5RN1A1SMaRwTv0om/gYj9ah9RDhuDwcSH8GbtVJy0PaEUHENTXK6cvuoZLCy122zUljwTWN+6LczZHLdAJKxL69F6mgb1926xPkpu1UnKw9g0tdYq6ciooZHZhCF+vZydGWm10Yz5It8kQ65yR3GfdYl9ei9TwjuYnyU3aqTloe0aSM7oFHgmNuVGdQIzNtmE+RhN0XstxT5GDgi8k7o4LEvr0XqeNifJTdqpOWh7Rp4goHQyyCITo7oxnzRarW3Gi50Yl9ej9TxSsT5GbtVJy0PYNxzbIFMITTcIJ5CKcVfcaRoxL69H6njYnyM3aqWrphTxAytvqj7r5yl/2b7r5yl/2b7plXSlwvMz3VVXUWsAJ2e6+fo+oZ7raNEP7DPdNxSjA5hnuE3F6C2dTH7o4ph5HNR/9I4pQdTH7o4nQn+wz3W0KI/2I/dfP0fUR/wDQXz9F1Ef/AEF8/R9Qz3CFdSHhOz3QraUj6zPdV08UlRRhjw79z7eAdI0vY17S1wuCtmUX+LVsyi/xatl0X+TVR4TQOks6AEKvwWgY+4gFk3BsMeM6dqdgOHj+u1bFw7p2LYuG9OxbEw3p2rYmG9O1bFw3p2rY2HdOxbGw7p2LY2HdOxbHw7p2oYVQt4QtTcLov8WqPD6SNwe2IBw4HxrK2hkZcqOEMFysQjBiTXFpTZA5uadG05otO9fSy6OXjAoqCFruKLQ0ABRcAqsAxJwzKYc0M2pycE4Wtvs4p4zQ8T//xAA5EQABAgMECAYCAAMJAAAAAAABAAIEBREDECExEhUwNFFUc5EgNUFSVXITJAYicRQlMkRFU2F0sf/aAAgBAwEBPwAXE0TRhVBE0Q2xIGZC/Iz3BabPcF+RnuC/Iz3BfkZ7gvyM9wWmz3BabOIWm3itNp9V+RnFfkZxuKOJVAqgIEcVhxVRxVRfhxVRfhdhxWCcVb4tH9UAKnFADCpzWiBWrlof8oMriCiCGoE8U81DFpHTA9ESWgUVp/iGKqeJunFraWMuiLSzNHBuBULKIy3sbK0MythpNBWoov5K3Woov5K3Woor5K37rUUV8nb91qKK+Tt+61HFfJ261FFfJWy1FFfJW61FFfJWy1HFfI2yEgij/qVv3WoIr5K27o/w/FfJW6Mgi/krdaii/k7daji/k7dGRRXyduv7FEQURZacZaWgdXBxQJBrTNB54KuBqEHVqSFi4j0CeSXKhVSQBTJaZz0cUHH1FUSXGtFouunvlUV9VLdyh+mPAbhdRUQTTeQjfOyRGSzrINZTILQbwWi3gFoN4BaLeC0G8FoN9oWi32haDeAWg32rQb7Vos9qqp75VFfVS7c4bpi8m8IeAKt7gCjdPd6lnXQGA2s+8rivopducN0xfQXhAKioqCiACCJWBRRF09H7Ms66GQ/ps8Lp75XFfRS/c4bpjwVVQgUCgbwUXKpuqqohTw/syz/sIZbWej+6on6qX7lDdMILFFVxQaOCDLgVVVuqEHVWPgnu8yzroZBU2k98qifooDcobphAoOJdRFtcyqGuAQBVEWHimgjNAHjcVQLLwFT3fJZ1k3ILBHZUU98rivqpfuMN0x/4mXUCedFpIVjbhyLwAg4EIuCZREXO0vRY3+qKnw/ZlfWQyG1nvlUV9VL9xhumFZWekDjfatcTmrKxDQixqoOCdSowTCtGrbqKioiAEzElEEKfbzKushkFTaT3yqK+ilu5Q3TCaaG8+AD1KYm5K0ZTFAo6FFU+gQY9xxyTWBqep7vcr6yCG0nvlUV9VLtxhumFwVbiUAEGBAJ5CY7+aiYnCq0aFUBQAF71PDWMlnXQyG1nvlUV9VLtxhumLq4I5LNNAucVRMaK5IYBC0WlVBBaSqU5TsfuSzrobWe+VRX1Uu3GG6YublcAgtJOcg4oFVN1VVVVTcSp5vcs66G0qp75VE/VS7cYbphBDO+txCDXJgKLFomiI8Ljkp5vcr66G1nvlUV9VLtxhumEAiEPASAn2jg3+VNc6laIueRkv5zmgxHPwOzU83uV9dDaz3yqK+il+5Q3TF7SPBSqbZElBh4LRf6BNszmVaEZAeA3Tve5X116Daz3yqK+il25Q3TFwCGBvKCDjxQtXcV+V/uX5HH1RNfAbp3vcs66HptKhT3yqK+ilx/RhumLymnC43tCICwR8Bunm9yvr+EbGe+VRX0UBMIFsFYNMQwEMHqhM4DmbPutZy/mbPunzSApvNn3VlMoHR3mz7hCZQPM2fdaxgeYZ3WsIHmGd1rGB5hndCZQPMM7rWcDzDO61nA8wzutZQPMM7rWMFzDO4WsYLmLPutYwXMM7ozKA5mz7hGZQHM2fcKbRcPbxssFlatfS29CuF5GxJVoxlqxzHtBa7AgoyOV8sxNkcr5Zq1FK+WaomSSxraiHYoWTSt7N2YVqOWjKHCEmlvLtWpZby7VqSW8u1aklv8AsBaklvLhaklvLhallvLtWpZby7VqWXcu1GSS3l2oyOV8s1OkcrH+WYrGUS6ytG2lnDtDhkdrVZi5pTn0yUTaElQLqOIuIxQJ2ThggCstoRggMEAnvLckCTUp/qoMn8iGV3r4aeF2SCKGz//EADsQAAEDAgIGCQMEAgEEAwAAAAEAAgMEERASBRMgITEyFDNAQVFSYXGBIjBTFSNCoTRyUCQ1Q1RiksH/2gAIAQEAAT8C2qqpEbSnuMjy47Fu10zN6p2fyPb5H5W3VVPrH4k9sHEKlYOKba27Aua0XJthmbcC+8/dMjGua0uFzwGD5GRi73AD1TJGSC7HAjDpEGfJrG5vD7Na+zCEe/C/ZLfapXvc8NvuUDgWjDTX+KP9wqfqIv8AQKq/7tT+wTnBoJJ3IV9ITYTBCWMszhwy+KNdSN4zBMkZI0OYbhPqqeO+aQBRVUExtHICnTRte1hd9R4BSSMjbmebBAgi4wdfKcvFVDarpEUk/FztwXcoYn6QqpDI/wClqqqf9PkjmiP034FaUqXiniym2fimaHZqfqcdZbitEzPvJTu/h3/Y0m/uwP37LKsqDUI1qlqlkWRZFlVtlj3sNwVRVb91003aCtN/4rf9wotH1ro2EVRAI9UIZYdJQNkkznxVcXz18dPeze/1VVoylbTyOY2xAvxUH/ZpflaP0fTy04kkFyVAHUekdVc5HcFDTR1GkagP4AkrSFEKUNlgu3x3qv3spqxu7hdaRqxNHFFEb57XUMYjiYwdwx0v11J7qoBNPKB5CtDZdQ/zZt603/js/wB1VD/qqIuH05W8eGGjf86r9/8A92pH5G3Wsm8qqNTIf3H2Wqo/yf2tTR/k/tamj/ItTR/k/tami/J/a1NF+T+1qaL8n9rU0X5P7Woovyf2tRRfkXR6Pzro1J5l0al8y6NS+ZdGpvMtRS+Zaim8y1FL5lqKbzoQ0/mWqg8y1cPmWrh8y1UHitVB5lqqfzLU03mRhpPOtTRfk/taii/J/a1FF+T+1qKH8n9rUUX5P7UfRY+Eiiqd30EFaTEstGPp3h6gBEMYPlCqYpDpSncGm1uK0hSyiQVUPM3iFLpGpqGapkG8jeomOZoeXMLKk0lJBT6sRX8CqKlnkqTUzi3gF0mSnr53Mbf6jdSOqNJOY0R5GDiVLBGaUxcG5VoinvUPef4cDsaUikfLS5Wk/Vh+9o+olcIi6Nyc6fSUrG5C2IHetIUhlpmhnFnBHSlQGavo51nBaMpXxh0sl87+7aqOr+V/4fhVJ/c+wGpsBKbToQgdy1a1ayLKsiLVlQarIbNlZOCcNqilykBRb2/OzWsc+lla0b7LR0TmUkYe2xwo4JW19S5zNxw0gayeTURsIb3nxVHTCmhDO/vP2bbdR1fyv/D8Kp647bGFxTIQO5BiDVlVlZWVlZZVlVlZW2yFI3ao2/VdUxOb47XUdX8oD9n4VTGRK7aYLusoYsoQG3ZWVlZW+04J7bHZhcWvVIQLe3a6jq/lR9W32Vcxjd9keJ2aWHvVuzvbdEb9i6ot7YvbtdR1fymdW32WkeQobETbkKMWHYTtlSDZoTZkft2uo6v5TOrb7LSnVocMQoBcpvDtL23C4bFGfpjPoh2qo6v5TOrb7LSjihiFTN4ffsrbB25Gd+xRC7IvbtdR1fyo+RvstKxm10MW8VC0ADbH2icCUSrpz0XrWIOxkbY46O5Iv9e11HV/Kj6tvstID9td5xp2Fz0BbHMMLq6v9i6JRKdIAEZ0+dZye9ZirkqxwacJm7saMkRw28O11HV/Kj5G+yqADGbqTrDjSsys98HvDUZSVnIRnd5kZpPFNqSOJXSrqOpvuKz71mCurq6ui5PkRenuJT2Oba6yqyuEHtWdvit3irIJ4uw40QuyH27XUdX8qPq2+yqOrKfzlFNF3gJgs0Jx3J1yUGo5fFOLVmCugU1/1DenPy23oShNerq6L1JJZOmWZ7uCEbvZPBda5QjWqYsjPKskfgtVH4Lo47ii1zUHvHeta5EWw0ePpj/17XUdX8qPkb7KQXaVUjLLbCPrAg5oG8p87AnVHg1BlQ/u3IULjzFdCiHFGmi7gtUB3LK3wWRhHBapiMJ7nImWN3FCpsN66XfuTqh5RLjxKZF3lcFdErOFnWdZldXXEWTwWmyAUg3XW82AVC3LlH/x7XUdX8qPkb7J3BVrC2TCKzTmITn5nHegCTZRRNarouui4IvCL2+KLgroOV09udh8URey1VhvTgEO7AuWYoXKsszB3LOxXGAQUw+tqyol3BU9O24c94G9QW1m7w7XUdX8qPkb7YaRi+m+AIyKw7lDzLMs6Mp7kb97kS1EhXBwuU0lN4fCY6x+UAXp8bgrpysrINceCNwUd6hbeTgpWRj3QaUGoBSj9xuEo+tMZdU0mr1Xru7XUdX8qPkb7YVEWsjIUkGW6KZS3j4qLnyqxCeSs1lqtY0b7Koi1VrHccGsu5GLwQCZGE/6QfZN4qCE24J8W5SMLXkJpuBgQmuITm5jdar1Q+nguKsggjvkOEw33Q5QoW5hT+/a6jq/lR8jfbB25pV2SXVRFkeouRqqG6upv4qwICMLXHeE+CO25W+jcU45hZy1Maa1jeGAGE5WjqfWvLzwCIRCrYLtzDuUZvhZZVZWVkGoBWTQmcSfXCYbkzkVCLiP27XUdX8qPkb7YO3tcFvbUEDxVUCS1R8jVXR3iDvBUz88QwITgbIgrI7wQiKDEG4Vu4NHiqSHVU7G+iKKfvT/ANqYjuVu9WVlZWVlZWwm/Zi38XJg3YSD6VHyqjFrD07XUdX8qPkb7Y1VM3WNkCqt7wm8AnMD2Fqo3mKZ0RwthZWWVZcBH9Je7cFH/wBTXNtytwKcnKrgzi/eFDMWfS7ggM3A3Vj4LKfArKfArKfKUI5DwYU2infxIapOiUgzZ8z/AAV5KiTWSfAxdwKaqTu9u11HV/Kj5G+2M5tGn9YU1BVtK537sfMFRVbJ7Mccr06Fw9UQfA4fCyHwWrd7J1RSw8zsx9FU1M9WLBuWNaMp9XHm8cCnJycFJC3MtWW72OQmqm9wKFbL3wLpx/8AXcumy/xpyjVVx5W5U7pT+ed3wm07Bv4nYdwTN8gCpxZ9vTtdR1fyo+RvtjUdUv5H3QQQU1FDKc3K7xCyaRZbLUXC6VpFvFoPwum1n4v6XS688Gj/AOqc/SLv52ToJXc8pTYYm9y5jlCibkaBg5FORT2XTgWoOQcsyzK+F9h/BaPbmq0zr3drqOT5TORvti8XY4J4yyEJqGF8Lq6L0XJxRcSQ0cSqem1YueKCan2RTsCiAQnNyPsgVf7D1ogXqHlM693a6jk+Uzkb7bFa3LOPVN2LolOfgUVRMBmLirouWtCdJdFyc5Oes6zJ+84AoHG+N08rQ3O9M653a5+T5TORvtsaRH1tKjO5XQKvgUUSicIPpunVbGcV02E/yTJb8EZE6ZOkTnrWPTXv7yr4XQKusyur4uWiNznJnXO7XPyfKZyt9tjSY+kFQu3YXV1dFyJRcsyCaU+JknFSU2U7uCZdnejISi5F6JwB2Lq6urq6urorRnFN653a5+T5TORvtsV29hUJ3oFXV0SiUXIuV0xNAsiQpH7k4olZjsDC6vtkrKXvDQqSmELPVM653a5+RM5W+2xVDcgbOsg5ZsCUSiUcGvstcVdORCIQCyFZH+Vat3gspVsQhslUDc9RgzrXdrn5Ezlb7bB37iq6nyPzBRndiUUUcGlMjJTYxZGOMcUdX6IsZdatq+hqMjUZFnWsanObgENkrRMf0l2DOtd2ufkTORvts1cWshd4phsr4lFFFBxaboVjh/FdKc5We9GNwWRyOcFCJzu9Oht3psIyo5W3wawrLgMThzENVJHq4RgzrXdrn5EzkHttTtyTuQOwQnKyjgzJtG3vUtFIw3HBQyFhs4KUjLuQenPbdGRPkJKMpy7kI3OO9CIDA4DE4UbNZN7IbhbBnWu7XNyJvIPba0g0iW6aUCr4FFNaogggnwNcjAVqXLo910f1RgatWFayJRR2LolErRlPZuc4t609rm5E3lHttVrM0SG4oOQKujg0JqBWsste1a1p70XrWBa1qMrbJ0oRkvidq2ZwaqdmSJoxb1p7XNyJvIPbaIuLKrZq5kCgVfFqGLkSUSfFZneKzuVz47J2tHw6yW9tw2G9ae1zcibyD226+DWR37wgVdXV0E1DEtTo3eC1LvBdHeujvWqd4LKrYFFX2dHR5It+w3rD2ubkTeUe32K6DVSXHA4XwBTSmuQ3qyGwU7YKOzTNEk4aUxuVo2Gdae1zciZyt9vsaUeHENHdshya5McrjZKcjgSnFHZ3ggg71o+vEw1b+bYZ1p7XNypnKMDsyOyMLlK7OS7x2bprk2RB6DlmV1mWZEolFyLkTtO3LffM07wqCrFRHY84xZ1p7XNyprm5RvWdviszfFZh4rMPFZgrhV5kfZjAbI0834ymU82bkKfTTX3MK6PP+Mro8/4yujz/AIyujz/jKEM/4ymsn/G5NEvkKtJ5SrSeUq0nlKyy+QrJL5CtXN5CjFP+MowT/jK6PP8AjK6NP+Mro0/4yujT/jK6NP8AjKFPP+Mp9PObfQV0af8AGVDHUwyte1h9UHtcAVmHimdYe1kAhapq1TVqmrIFkCyBZAp6l7JS1qdWTDwX6hN6IVTyAdydUzjhZdPn9F0+f0X6hP6L9Qn9F+oT+i/UJvRdPl9F0+X0XTpfRdOl9F0+b0XT5vRfqE/ov1Gf0X6hP6L9Rn9F+oz+i/UJ/RdPn9F02b0Tq+YW4L9Qn9EK+b0VFV62Usk+Fq2prQP+DmN53p28IqB/dhJHdEEbV1dXV9u2L8Ag4tc147lE/PGx3p/wBwllZELuKl0kXXDGoX78HjehuKjeCMHMBTofBEEdhOI4LRcmaEjwP/AFTzshbc8VLK+Z2Zybi/BjrFMdfFzQU+LwViPs2VlbE7AWj6hsMrmu4OQIIuDft01RFCPqKk0i5x+gbk9znm7jsuxjfZNN9jKjGjGVlVlZWVvsnAJwBUU88PI74UGlI32En0lAhwu037WOCr+v234hQ7RR+6cBi/itF8iPZf/EACoQAAIBAwMDBAMBAQEBAAAAAAABERAhMUFRYSBAsXGRofAwgfHhwdFQ/9oACAEBAAE/IelshrJ+iEgY6I7J9DpNLbeDJrYQu+Q5ieSxI2TQdJH3Ce4OpO4RaaBDgkm7JQ1Orchbx+VcNnHd05rU0HJak5IORkX3/Ax8hFjJt2SMO9X1usEEEEEGBBBBHQqMk8dBBJQIdr72T73Yd5/oxFZIpbYryLwTKoTsH0SYXyKIvw0PkfJw/UZGFaCIa9UY1qryxaZKeHRlgJwsna5jR6ESZKUnsX61dLbRIfL1mYVVtt4H5ysouyYjDubj9utkbSEjDrJPQuiCGJy/UtJyZHpGG6Z6CeYGXHpzpDEEl7nMB9VyJLhaU2F1QpjRjMnZm4/JHnLQ+1yP8uvWIiwoTcGd9SZ9x7e5BXK0RCcNvXELGmuXsxSEJCiv3eUIIbbiS9CJVrvL9n3uBOjs2FosfPdRzUROphBrgXNeT7n1oEZifQxP/wBi3vuc/wBxb73EnV7n2M5/ufSzle4nj5iQrfI+xn2M+lj/ALj7WfezXfPqxEBE/wDTHOCUhB2jKQtyGlNfoc1RewZS/iEMbcta7cCIazl39TFDn9whe33ZnoqTiR8tq4PlCILiBShKs0J6HEkWgWDnc4+n6oCwm8cnRCK7kuvpy2nV4he83KrI30NZpQ5O6HgjsOGCEYIrQabHCOpoIgaGkNBhcMg6UiH1LHbG8voQtid01qMzRcPl0a8U0PeXJBqnzQCbQ8t59cKkNvwRG6mRJkfQtJIXDiEqqy61h9HwNDHR0I11NyJDmXSjpjsfEJImzrzak0QxikRCzkShISIIo10B0IGqMY6skQzpEp6Ow0vyU+68Q+AL9Q025FYnA1XZYlEup9DGOjGMY6MZAIGXQmVxHq7Bd2Pij4glqQQQploFVdDrA0NdJjHRjELs9LPRxT3c+KNKk6IQPAkBCrPWx0gYxoaGMYx0hqUVmGT77u7xD4ogRoQgdMiBsIQiCCBED6YoYaGhoQaGhwOs6qYtd7RKO68Q+GEbwlkRRHA9AxCEKqDQ0a9ToSIoPkQU+aEOjVi4CHgSe8E+CJ5NDUIHiijayIlJFuiZAabiWaPomrKRskTZtoY8DymFFAqISaH60kltXjQF3XiHw1MEbI6XSpMdg3gnZBimpBY+4WjlI0IMxjYgsSM8/otxkk9S3UgFBNCb6BQJEZ4FinpxH3fiHwQhrFJ6xEM4ILBJLNUgs0FHZj3CIncWkOw9c0Ui6MTqJDGSwzdjZ0JbuyLIkaBuLeHLItc/scZk6hxDJVJuPu3iHxxDiZQeC00BoVh/ZySPKXVQYVGsg2Ki8dIItAropLuNFAGyM7ckNRD9woReAVASsLDPIJDuQqosKJmo0sYmyRUIfqmRG6Bd14h8cJLIfW1ZukPKJkmjQWkVxLLVxQVMvqb8nBnWl4pi1GrFZkSKuJLq4lgy9Q3CoMGBpqPMYbsIlFbDGom5kXpCTZmUNBM05WD7vxD44YmWgjMCiTiB5w6iyA4IbbTCRkry8ksT3QOEvUe4hlZC2WhXJ8iWsNhnGiQT0JhCJkLHFqO+jYOCLkD8mY2IT0O7eIfHUS62GOrtAzxIxkXQK0zZwbZkYngNZZS3YwickIKV2L0DVCKo8sh2xMw5C9BImNzTZ6USWbyQRKWJKEIvbUsRBRbDPRX8GvcRWfHUeXwSFlO5i8M+AQC4ZMTtxTgtbHGVxIdl0QbjSwgXsJQO/RDvbEqyVhTNwelhmXQFHK9kXb5qWDLgp7af55/LPjqLyiErCNmUlcWxxQnP1orkEqaEIGBDJNRrRCINBosfLi9ccn+xDWRRp4EW6BSSTD6CqaKHknsSxEtJnHwnUko07zPjhkkZ7p3QyXWgsegMBqjBC2RQ0MOocIZgPcjzB7GirKWmGZf+RUIpHMFQi/iFilERAEu2wyuPSz2RqssaXI1+7fAPhB0vhc3kwojvTREnTmRHPwEs+0SiJ1Cbh/Y13ZyO521XXLYl8iWawqVEoKNazE9IXA7uVbP+hG/+6bEjSfl5IKSHFngZy9RlqMyCvd2ejO8D4QbpcwyaKHE1JAmoxO6JEB+KdAfrktUU4UDeX97l3ufJEWsJT6ISLBZRClEzL4ocwuRLeluiRjMxBToeT3fhHxlfSgkTc0DCZKSYG+433IrSP3oqJkFJuOIJcsMd0OiEMYzRQQnokbGxrHBB5Pd+EfEDpqTMOSJidZoIcyNTpCYIiUJVG6mncSNjgOp6iBNUYkkYsCXTz+83xHQtcom6ISMMqnI/7i0F4IRcygSkXRj1IzYYxQN1qMKkjYw3qzy//gZJdoTjNRmSrMMOsXaZfrwmBiyjJyRISJ0ExjYiumDD5Ft9Tz+/wMWBwRp6fgUSzFkWCxLCi6hNJoTGWJExOs0FqxYq7jyO78vQjJf0Fs2MtIZmruGE6WRQrCZqm5SuDZhHMNwQaEhySNQqyMPTZwjFjyu78vSiJHgLG5yTizJqpQ2MbhEUIQL0xtUQtkhQtgSxpsO5IxipRUY2PZkDWpJ5Quwn8XkPgOiSwMEOseVkQTGILauspTSfiWhOO7cClSJ15GSUsuzgMjkIwauKhW0XYwxwYl0WGyGm1YlDvV5Kk6uGmtyB6N00+iQvL9P9DyjIYlyJyL6jSahaV0MJKEJWFixyCBhdDtJIQiiRsYbFp5CJCd6PN10gV4hI5kSsgaIkIh3QgsoNCyDQu5gijq5IkNGrEGIkdBEmzm7HRV3Xmpz6cerjOB5VCWhiJdKwhpJeR3UBOhBc5CYNwSCamSNjY2LnT7+y+alPoYhzD2SoTq6LYncxokYrFZubsPeD0HTXYlVhskbJG6FCsktuiruvJSnR0dEOVEzDyhFU8hh0QQWhqnSDRohqCdURQ1DY3R3aW56o6PPF+aSR1ms9HmPjh9Tumnhio8ExBMjq0Aig0NDQlLQ0MccbJJp68olRdHk9U9g+nzURj6dR9wQmSTTSJsJwhsbGNQw6ww30YjJgQLK4e47V838U1f5vKfDH1EvtESlqEm04pJNEZE8iZRyl9LD6KmtQb6EJYKKQMTPVe183u/KLJhg4Y9qcKi5DnETFqaIEL2RW6N8CVw/R/NP5J/JP4omKWQgXP+FSX/nj/wA0f+GP/PNF7Iz/AOJ/PP4p/NP4p/JFn/xLR9sSX/xOArRoSliVhnGHTZ3caZ656o+QfPXLhCdCFlvgRxb2isZcF6n/AERae0+1H0o+lH0oX8Yv5j6kfej6kP8AhGv/ACfaj6Ufaj6UfSj7UL+EX84/SL+D7UO/5LA52Ur+u/dVkl/IgbSG+iL1ZjC6/EU9SCpe06mIQ2OTexW7IVWNuTI2uyCANgFK9xqTQBmRlFSfxQJCRA3BemIQksibXeL889jkN7OCHtltEJAnUxkghSCDKI1Q85fggQQQSowxiMxqMahEknHRNJ7fJIr+w/WBJ+6LAjKodJVxKUY0NRc2EBsT6BAkJVY0RQjMQ3H0tjcRzGCBPwST2WQyCwh1QqH0jq813VUXUzAVDpg/OH+D/8QAJxABAQEAAgICAgIDAQEBAQAAAQARECExQSBRYbFxoTCBkfDBQOH/2gAIAQEAAT8QY+GEDPwvEgvRkHq+gSXS1dzNkRRfj7ng423juy3jREQkhhjpHeTvVmC/gJwJh0/FIeD4NnzyyThm3h5z4PEk3ShM+sn2YJbb1w78rHU2E/BPgxZvweC2/iQPkMWadH0hkTc5qYG9EIaMWSSd7HkhafdoWlpb+bZS2220ttqmZBj5wm78tmQaxREUDBSYN7n6vc9ZHfixsfi4OCgfcRkdxbI6QnA9zxrx4+A5d2/uL38Wu2RNcGZk68CGbI7Z0UHp8ysBfP6I9ZX/APgjAdP/AKROSlMAJtt8HZehoF8LI7o9vQ04ssokQyVURoRXf1Gjn+7T5/vwsP46+DYP5xDwnDSJezD6CmwRM807Lu7ADSsqhxu86YJJHtj2kDR9Q96I31CIoEHzITuSQF59ywgeNcFlu7yu7LLcNfShaSKz7l25CHUMOwaygABZzCEDHyqo+ZsaSWd8epDm9G3XB79Wdr027f8Ag6nhCBuJNPQSV6dM7ie80ADDYCZzcqVv+39N5/HbAf0l+aTx/qi6U41zXWe5TvYM7kDW/ZZvbgma9fU3l92Fzn+3sPZPYVWARKBIHrr6n9H+0UQP6WKorHR6Z1f+f9uc5IougQGdBu5PASPBiPuR9zn5V/Pn58/Ln5M/Pn5cH6FUMFfQv55gOq9ldy84H4rh73WIWJMgs/IinlR+7E+VHPFR21dxu5X3OflxX3n5M/LnTZm7jSfjA9wo3ZfACSflq9JBgHYHRt2dyA/KGaQVrO7pGLDrwQPSbWDx/QPLu9yFB79CQOT6Ltp1/tXuEbQngy6buHY3b+HP8pR4VGHUfqdEiIXsYrm320FlTZ08gYy8qfrK0g8Jcb80EZOYf1be2qt2LM4kvPGMXpknivEKtqEHTranwJIGLNk6cAmLYeYH1YMNJgE69QiycWSLlO+AY92332FmaoXjCyDdASVevfeI2Gw28mInCvi3+OmgHQBPTkPDGYbsgM2+GcIJiDAeAOO3cb/Fny8n8LOf4/qX4QWXtoBLP1ebuDZfub2wDQw/heg2AerAZfg4n8JjX4Sfxj8Iewz1wngw2BG0GfgXR8WGrKRaaYsPqw+rD6sfRYfVhIfVhA4646+Ld/I4DK+5/UoIHaHcr0/AUArHldvMR0cI2JFkd5z3mHJv4wHDOZljGwky665eC73iiWEBgW0fPOU/wvHXw8kf+N9QXYYshTwU2ovcLoNXwRIf5PqBhDAEMSSHDLLqByIwhGbKXnPPO5GPXLI4bRh7TAPEfJt+T834+b+F3/8AB1ec+IXafEQGwgPfmTP44DFiJbeWXZg4UkJIZGMJMlw0sujz8PSSJmuU/b5vB834JF18PJ/DiSzL2QSdCCKdJmLxZ3AcbnHVsZIJeFz1COyhNHuDGEJUfc6rkwObkKAGEt/wMcPx3h42fmksp5glj3InLSDc408eHaIxYxV4GVgWySdx8JvRB8Ausuz9ZNgO9txR9RdB4iAyHz2f8Tw/BOcG0Au8eARPU727KwdvAu+I2CfPiLkU2ZwnUBYQsFkpGh77Ih7ESzTJB6jZmMGIw9FsiT6yys6YPxhHzz5PGT/h7v0uBF3gy8sdMu17u96/diFsEe7pnn9Q50MexC9MMzA24Sm2G7EuTixMNuu+fcgyyrkB5oZn9qDlq/d1DCeTqY0sGQ7tE/nHeNvSSJ5ITUN853b8Xnf8OcPG89cxrMghDT4LPqx6YPugY8WBr39SSQYk7cONxzbYn+oumpH0Q+CKEexlvBlDpsQ8WB7tH0fGTo72ZNa4Q5AH0bvaSQu79jYLthgwPoZACVRiP+7fOr+YHF6sduQHn/8AGvw6+Cf+l9SOsy3wtsL8tQA/QlQ8kkk7GkCJMzXFmaYmNf2s5ifMLHf093Q6e/LGSdyYIbsg9W5oAJE49bA9LM9RCJF4FS7dscjBjW8s95o/6mfL/tuYvw2XWD4DBkQ+mfEQxm/E+LsFvq2LH+XeHjx8NteMs4z/AMr6iX9kXiQsdgOGyQQP9FjQeFDU9d5kEcX8R3Y2d0yGSLNrv0j1j/u3un6G/wDh/N5JfXI8gECfXPu7UM09u+CBYZp7nwgKb9sn1P5ScBQeng/TeRf1Kni7D4aSCVSOpPPM/g34Pw2XlNeG2W2fnClC8pfZON58Pq6qmaT6DvS7HWNEfzsgOiPAuFq7fDz1dMmYcM58N0NSyWhrV/FIgtdQZ/OCAV9QE/sWcBmFl17hK3lSG6rGL9A5ac3IY8kixdtZuY7dVvqDb5cji0AjfDVh7Nh6+I/FbZ+G3mJ+GxZefkUf1jEYOzCQMomBbrzL9sJ9TGupwdMjBsNA4bfeXUFjx5gHqE99yR/caGph+zigeTma5KfWmu15JS9WT3apsFkNFeLGRrkCcN/SMU3YoKZwhu9DYxEKuYGIb3vrWYvR/wCpe+uXjYedt423k+aw284pvNAK1THtnmIZebl2EPZAihY+fAkPVq1Pm7RGC5F1cjv3Y6zPjhZS/wAjDli7Ad9WH/aiGmrYTjwHj0s2wOzxYDxdURPkM4bJpAHcuJcCdf8AlaX2+4arq31I9EakfR0B/qzzF/EmkIHnpX/U9I/AcrbDttvK2287bLbwtttm8C/Q4V1fjNyru117Ih8+yzvnpYsyg5jzBOTdbRJ8gAybgMf8k3a1/NqF/lduzbxzvByCuA8TY62XCAAhEQl8cu5D03uBZ2QN2X0xa9lXclsslX1IxcDpH92Da4PDHbTo2c3ru6rbbzttttts8beXwWXjbfh+lf8AlfXH58ZdXpD7ljDEgyMD5cXm2XLQ672nDf6tjXsQvKGsI2OydB1IjmE/liCjHqE31GMjtO0/hhU6WjA9l/G7wEDrqD6hLAQDU4BYC8SCZaPZvCZ/IyYeKHgmPG222y8bbbbbLDwMtstvG7wc/oX/AJX1K6MjDlhZvq2O+gXgVSMDFZvF/CO/ET6xrqAWTuPihXYhOzdvSQeg8BhFh5t5D/jPslUFvNmkKGndkptnnJPj/lBd/wBVsGPEFf8Ahkykpqr3LI11oQE1B36jEYB0EkdKeN6Ey774vDxtvGltsvG22/LbfjH/ALn1KWRvym7/AJNsA/Vvpsmp2Iulww66kW8H2JtxfypHyP8Ay+lf4L/7TTkifZ0k5w/CTUFGp4alw4we5DvLshR3xbKfPkYUh/C3B/0dfqxT/Zsj33lDb9a3hZ5XcxhAOzMya7bptg8ATG7hC3VCTf5U+DztvyHhePHDPwWG/UlxwsX8Flv8G7mPojhIP49keQ+zp7kAs8BKxA96u9EX/wB+46Iv8obhTyyIa46RT/b9pA07Yh6LxVGEDdv+uKIkNlHezzLn/eLTGXRmxpPzJT74WbZSkjTIGhIAX4/Y428zztvwX4jbb/hR/wDs9Syx/eq3saFkdj65EwXVe1MnUFS4Qim67NIVgRN4u1nEIPSQ2DxH0LevfECycxG1mexYX540XbPBB4H3ahVq/j9uG3lj4bxl1ztvL8Nl4RcQ2PCITwsYMHTMIIW+Y2HAZGO468a1Yd9zmrE7kPqFA85B24xHl7gekIB7gHbMHdDwM98LqIJMrYJlhBH+h+0zzvHvned3keTlbZ75/U4Qzey982Gbvggc3vZ7rfZgIPU6ZC+o49aFqx2YfYZm7PoDq13tdt8oXfuUh5CWk8IZz3flj7p2zw9bOiQ7m/1P2/xv+F4fj+pP/ktllsu895AGGCI62fe8Tsh9ts4Nqx/4Et1XPTdtatgJD63q3g5bRqDPfM7tYd2PC1nZcX5OBxk6nJ/9pd/rtf8Ao/Pw23jbeH/G8byt+hP/AIONlDm+aAFzYzy7zBNnmQ2EzWdRpYVzJ/q3Zhat1JbTZT5u4jQnLo8w3dl4Nt4dEE3ZCyu9gKykfEt422Xhj4bDPOWy8fq39ZPCLbc6820cGubEtZIW82WV92jzPd8fl3AJ+EudW31d4kdyVxAbpDQCapHUiZ4Zhd4gwhyzokTR+2DB6nV/W/bh+e9fN+L4teeuP0b+knhdg4FRF1lFPZYOvmGrJ1mZgvDgDX1bxHu/I3mxh79LdnRDM9D8XWcZfVdSPfdkXDbRsSBA27rW1W3toQs5jibYv77EJv8Ayfng8PO/B53lhrys/Db9PgGzKTPuh5ODYuCVumV2s2o2gvJIQiY/mUPbbE37M39D8WL3XniybiMoTsstlHmdQzcsdPPfVgkwJctsGEW817U5Rr+r6v2P3bNsvwP8C8j1bLxp92vD5v07+ingkxQ+BM6ZqLbj2TboYdclqRYNYbEKxaWrhkwXnQGKEMMB87YTnGTkZSuPb3J6mtnAOMw2I4L8X3zBoYFt/Sf3E8bxv+FZlttm15W3j9e/qpmZgdjUSdd2nFn1dbdoAKXRw6bXuSRaeRnmf0u+D/uPMD3PhiI+0y1THGDJ4gXayW7IS4BacCahY1714f8Azf3eE/4nnZt42eznZt4/Tv674HJ6tpBBwaMuALLYjocQ9CceYS18RWLFgsR7gluiENDtvlC8Y0TJl3lh1w63S8PdYB5Mhx/RdM37v7jnf8DLznGwkoW7bazz+rf1UjheQy6MH+UkvXANvZi6m1kLjp0LEal+J7PjsGKQ+6mHzLOWTYHA8N4DOtp5iF+BhbLf1X98H5Ns2yz3eJeGXneNJnj9W/quD8BtD4dRFx8CF4svyRO4tU7mF0hLO6BWQUTs494tHiY2Fu6KiQD1N6nEzeS2/I1hOCexxt6v6fJvG8rZNuS9W8MOQc4NucF42/R44JZlmfFgVoYwrK+vOLhaI8O4dJ1hGtsRrwdEjr7jj2zkYPKMfytZbM7Ba9eP8BLDat5WZZSHbe5M43v5Em2/Rv6zmWW2WO829BXcujgIXLpmBEfBMgDEmRhDsiDG7OweLDGaQ75teJXg7u2z9ROWFxKFY28f0OC28++VvKWMYcbMusZbxrNjwvD/AK7+n4CZmZb8EmWdql9aIilJrDbMMebrDbm9JI89333qN8MXpjx7i1gB7thVq8a8LFUlJ+4L5mgxxAED92239HhvC/Dzw5YTLy8DDbO/Btl/XLQkAkwPODvwL8Ofq3mdEllMBMAb2RSnP1Hizi8EiWT/APneGGfi6AH+rxllz6vxY+qKdg8g5tjyBaSsnjhnijt0wV8Ed8Ibra3PanbZBepGN6Iz0jbLE5bwNvO5b3yieL3wTxs3Vs8ID0vw/wDU/V/1BPH/AFDep/Jfz3WL+ajlvpr0oe8j0YEOED2NVIx/FX4r/Df469sj2S30UOwe6yPXBo/VD9Efjj8EfgkZ8Q/1LZLiYn4I8rDmgjX0kFO5VHtPNto2287bak/FfgM8bbwttpbM3m8OS7P4bO/Bi6lgCw35R6JLRCHQ3V+YeEtbWwR4NU8Nu8AvEevEeJH0kMpr4/j6iNxSXIeH4a/LvlTkxy8Px2WfcsuOdaEAkHTbHyTvYQLECHmcFdwEwIJZ2HP6JTsLYjlk8pbNkJ58xYI+FYsQM4iR6wqjbLbPPvjZ52Zvc5bPdtsspxvA5bs2ywXpAncW9jT5ei8vLRnxHUXzaGJhhLthskf6LOMym74XnIbYsX1AHA4FpCGPB553RDmKDLHhVuSw2jzbOLdYe7q1OHZTjr4vwW2VltsfAmocG5hn61TubpfRL6LoJ92KZb9+o6Q5ZQo8icEjRJj2CTVi8B4gepDyWo7wIf1w4wcLgYePghOO7X2PyE9rnv0scQTRG1t+G25wIrysuHO28Lx64ef6HD/rcGPV5Xi8PHjyLw48Jni8fkjgXqZnx8B8i8PhHzP44Y+Hvj1z7+Z88f/Z;" parent="1" vertex="1">
          <mxGeometry x="150" y="260" width="190.88" height="140" as="geometry" />
        </mxCell>
        <mxCell id="3IGZsMCNK8XpxzBf81Nb-26" value="Emotion Recognized" style="text;html=1;align=center;verticalAlign=middle;resizable=0;points=[];autosize=1;strokeColor=none;fillColor=none;" parent="1" vertex="1">
          <mxGeometry x="180.44" y="410" width="130" height="30" as="geometry" />
        </mxCell>
      </root>
    </mxGraphModel>
  </diagram>
</mxfile>
